<mxfile host="Electron" modified="2023-08-20T14:33:51.649Z" agent="Mozilla/5.0 (Windows NT 10.0; Win64; x64) AppleWebKit/537.36 (KHTML, like Gecko) draw.io/21.6.8 Chrome/114.0.5735.289 Electron/25.5.0 Safari/537.36" etag="xMrgbkaG-OWJ475g_G_2" version="21.6.8" type="device">
  <diagram name="Pagina-1" id="ruED8KApXvsvsav0EOmQ">
    <mxGraphModel dx="2363" dy="1380" grid="1" gridSize="12" guides="1" tooltips="1" connect="1" arrows="1" fold="1" page="1" pageScale="1" pageWidth="1654" pageHeight="1169" math="0" shadow="0">
      <root>
        <mxCell id="0" />
        <mxCell id="1" parent="0" />
        <mxCell id="Hz8rqVoHaeQYQRgCHm7I-2" style="edgeStyle=orthogonalEdgeStyle;rounded=0;orthogonalLoop=1;jettySize=auto;html=1;endArrow=none;endFill=0;" parent="1" source="Hz8rqVoHaeQYQRgCHm7I-1" target="Hz8rqVoHaeQYQRgCHm7I-3" edge="1">
          <mxGeometry relative="1" as="geometry">
            <mxPoint x="620" y="370" as="targetPoint" />
          </mxGeometry>
        </mxCell>
        <mxCell id="CA8DIJyEQ-BG8HpjzGWb-2" style="edgeStyle=orthogonalEdgeStyle;rounded=0;orthogonalLoop=1;jettySize=auto;html=1;exitX=0.25;exitY=1;exitDx=0;exitDy=0;endArrow=none;endFill=0;" parent="1" source="Hz8rqVoHaeQYQRgCHm7I-1" target="CA8DIJyEQ-BG8HpjzGWb-3" edge="1">
          <mxGeometry relative="1" as="geometry">
            <mxPoint x="350" y="470" as="targetPoint" />
          </mxGeometry>
        </mxCell>
        <mxCell id="CA8DIJyEQ-BG8HpjzGWb-11" style="edgeStyle=orthogonalEdgeStyle;rounded=0;orthogonalLoop=1;jettySize=auto;html=1;endArrow=none;endFill=0;" parent="1" source="Hz8rqVoHaeQYQRgCHm7I-1" target="CA8DIJyEQ-BG8HpjzGWb-12" edge="1">
          <mxGeometry relative="1" as="geometry">
            <mxPoint x="472.5" y="280" as="targetPoint" />
          </mxGeometry>
        </mxCell>
        <mxCell id="CA8DIJyEQ-BG8HpjzGWb-32" value="" style="edgeStyle=orthogonalEdgeStyle;rounded=0;orthogonalLoop=1;jettySize=auto;html=1;endArrow=none;endFill=0;" parent="1" source="Hz8rqVoHaeQYQRgCHm7I-1" target="Hz8rqVoHaeQYQRgCHm7I-3" edge="1">
          <mxGeometry relative="1" as="geometry" />
        </mxCell>
        <mxCell id="CA8DIJyEQ-BG8HpjzGWb-34" style="edgeStyle=orthogonalEdgeStyle;rounded=0;orthogonalLoop=1;jettySize=auto;html=1;entryX=0;entryY=0.5;entryDx=0;entryDy=0;exitX=0.75;exitY=0;exitDx=0;exitDy=0;endArrow=none;endFill=0;" parent="1" source="Hz8rqVoHaeQYQRgCHm7I-1" target="CA8DIJyEQ-BG8HpjzGWb-35" edge="1">
          <mxGeometry relative="1" as="geometry">
            <mxPoint x="710" y="260" as="targetPoint" />
            <Array as="points">
              <mxPoint x="496" y="340" />
              <mxPoint x="520" y="340" />
              <mxPoint x="520" y="190" />
            </Array>
          </mxGeometry>
        </mxCell>
        <mxCell id="CA8DIJyEQ-BG8HpjzGWb-40" style="edgeStyle=orthogonalEdgeStyle;rounded=0;orthogonalLoop=1;jettySize=auto;html=1;exitX=1;exitY=0.25;exitDx=0;exitDy=0;entryX=0;entryY=0.5;entryDx=0;entryDy=0;endArrow=none;endFill=0;" parent="1" source="Hz8rqVoHaeQYQRgCHm7I-1" target="CA8DIJyEQ-BG8HpjzGWb-42" edge="1">
          <mxGeometry relative="1" as="geometry">
            <mxPoint x="660" y="250" as="targetPoint" />
            <Array as="points">
              <mxPoint x="526" y="350" />
              <mxPoint x="601" y="350" />
              <mxPoint x="601" y="270" />
              <mxPoint x="679" y="270" />
              <mxPoint x="679" y="265" />
            </Array>
          </mxGeometry>
        </mxCell>
        <mxCell id="X5VYXHr65bgpFRcitx1M-48" style="edgeStyle=orthogonalEdgeStyle;rounded=0;orthogonalLoop=1;jettySize=auto;html=1;endArrow=oval;endFill=0;entryX=1;entryY=0.078;entryDx=0;entryDy=0;entryPerimeter=0;" parent="1" target="X5VYXHr65bgpFRcitx1M-51" edge="1">
          <mxGeometry relative="1" as="geometry">
            <mxPoint x="381.25" y="358" as="targetPoint" />
            <mxPoint x="421.25" y="358.5" as="sourcePoint" />
            <Array as="points">
              <mxPoint x="421" y="360" />
              <mxPoint x="381" y="360" />
            </Array>
          </mxGeometry>
        </mxCell>
        <mxCell id="X5VYXHr65bgpFRcitx1M-50" style="edgeStyle=orthogonalEdgeStyle;rounded=0;orthogonalLoop=1;jettySize=auto;html=1;endArrow=oval;endFill=0;exitX=0.001;exitY=0.583;exitDx=0;exitDy=0;exitPerimeter=0;" parent="1" source="Hz8rqVoHaeQYQRgCHm7I-1" target="X5VYXHr65bgpFRcitx1M-51" edge="1">
          <mxGeometry relative="1" as="geometry">
            <mxPoint x="390" y="380" as="targetPoint" />
            <Array as="points">
              <mxPoint x="421" y="370" />
            </Array>
          </mxGeometry>
        </mxCell>
        <mxCell id="X5VYXHr65bgpFRcitx1M-60" style="edgeStyle=orthogonalEdgeStyle;rounded=0;orthogonalLoop=1;jettySize=auto;html=1;exitX=-0.008;exitY=0.075;exitDx=0;exitDy=0;exitPerimeter=0;endArrow=oval;endFill=1;" parent="1" source="Hz8rqVoHaeQYQRgCHm7I-1" target="X5VYXHr65bgpFRcitx1M-58" edge="1">
          <mxGeometry relative="1" as="geometry" />
        </mxCell>
        <mxCell id="X5VYXHr65bgpFRcitx1M-61" style="edgeStyle=orthogonalEdgeStyle;rounded=0;orthogonalLoop=1;jettySize=auto;html=1;endArrow=oval;endFill=0;entryX=1.013;entryY=0.406;entryDx=0;entryDy=0;entryPerimeter=0;" parent="1" source="Hz8rqVoHaeQYQRgCHm7I-1" target="X5VYXHr65bgpFRcitx1M-62" edge="1">
          <mxGeometry relative="1" as="geometry">
            <mxPoint x="400" y="390" as="targetPoint" />
            <Array as="points">
              <mxPoint x="410" y="390" />
            </Array>
          </mxGeometry>
        </mxCell>
        <mxCell id="X5VYXHr65bgpFRcitx1M-63" style="edgeStyle=orthogonalEdgeStyle;rounded=0;orthogonalLoop=1;jettySize=auto;html=1;exitX=0.088;exitY=-0.011;exitDx=0;exitDy=0;exitPerimeter=0;endArrow=oval;endFill=0;" parent="1" source="Hz8rqVoHaeQYQRgCHm7I-1" edge="1">
          <mxGeometry relative="1" as="geometry">
            <mxPoint x="430" y="310" as="targetPoint" />
          </mxGeometry>
        </mxCell>
        <mxCell id="X5VYXHr65bgpFRcitx1M-69" style="edgeStyle=orthogonalEdgeStyle;rounded=0;orthogonalLoop=1;jettySize=auto;html=1;exitX=0;exitY=1;exitDx=0;exitDy=0;endArrow=oval;endFill=0;" parent="1" source="Hz8rqVoHaeQYQRgCHm7I-1" edge="1">
          <mxGeometry relative="1" as="geometry">
            <mxPoint x="400" y="410" as="targetPoint" />
          </mxGeometry>
        </mxCell>
        <mxCell id="X5VYXHr65bgpFRcitx1M-70" style="edgeStyle=orthogonalEdgeStyle;rounded=0;orthogonalLoop=1;jettySize=auto;html=1;exitX=0.715;exitY=1.001;exitDx=0;exitDy=0;exitPerimeter=0;endArrow=oval;endFill=0;" parent="1" source="Hz8rqVoHaeQYQRgCHm7I-1" edge="1">
          <mxGeometry relative="1" as="geometry">
            <mxPoint x="496" y="441.32" as="targetPoint" />
            <mxPoint x="490.0150000000001" y="397.99999999999994" as="sourcePoint" />
            <Array as="points">
              <mxPoint x="496" y="420" />
              <mxPoint x="496" y="441" />
            </Array>
          </mxGeometry>
        </mxCell>
        <mxCell id="X5VYXHr65bgpFRcitx1M-73" style="edgeStyle=orthogonalEdgeStyle;rounded=0;orthogonalLoop=1;jettySize=auto;html=1;exitX=0.998;exitY=0.904;exitDx=0;exitDy=0;exitPerimeter=0;endArrow=oval;endFill=0;" parent="1" source="Hz8rqVoHaeQYQRgCHm7I-1" edge="1">
          <mxGeometry relative="1" as="geometry">
            <mxPoint x="550" y="440" as="targetPoint" />
          </mxGeometry>
        </mxCell>
        <mxCell id="Hz8rqVoHaeQYQRgCHm7I-1" value="&lt;font style=&quot;font-size: 12px;&quot;&gt;Film&lt;/font&gt;" style="rounded=0;whiteSpace=wrap;html=1;fillColor=#fff2cc;strokeColor=#d6b656;" parent="1" vertex="1">
          <mxGeometry x="421.25" y="338" width="105" height="60" as="geometry" />
        </mxCell>
        <mxCell id="Hz8rqVoHaeQYQRgCHm7I-4" style="edgeStyle=orthogonalEdgeStyle;rounded=0;orthogonalLoop=1;jettySize=auto;html=1;endArrow=none;endFill=0;" parent="1" source="Hz8rqVoHaeQYQRgCHm7I-3" target="Hz8rqVoHaeQYQRgCHm7I-5" edge="1">
          <mxGeometry relative="1" as="geometry">
            <mxPoint x="820" y="370" as="targetPoint" />
          </mxGeometry>
        </mxCell>
        <mxCell id="Hz8rqVoHaeQYQRgCHm7I-3" value="Partecipazione" style="rhombus;whiteSpace=wrap;html=1;fillColor=#fff2cc;strokeColor=#d6b656;" parent="1" vertex="1">
          <mxGeometry x="590" y="332.5" width="90" height="75" as="geometry" />
        </mxCell>
        <mxCell id="Hz8rqVoHaeQYQRgCHm7I-69" style="edgeStyle=orthogonalEdgeStyle;rounded=0;orthogonalLoop=1;jettySize=auto;html=1;endArrow=none;endFill=0;" parent="1" source="Hz8rqVoHaeQYQRgCHm7I-5" target="Hz8rqVoHaeQYQRgCHm7I-70" edge="1">
          <mxGeometry relative="1" as="geometry">
            <mxPoint x="950" y="560" as="targetPoint" />
          </mxGeometry>
        </mxCell>
        <mxCell id="X5VYXHr65bgpFRcitx1M-84" style="edgeStyle=orthogonalEdgeStyle;rounded=0;orthogonalLoop=1;jettySize=auto;html=1;endArrow=oval;endFill=1;" parent="1" source="Hz8rqVoHaeQYQRgCHm7I-5" edge="1">
          <mxGeometry relative="1" as="geometry">
            <mxPoint x="805" y="330" as="targetPoint" />
          </mxGeometry>
        </mxCell>
        <mxCell id="X5VYXHr65bgpFRcitx1M-86" style="edgeStyle=orthogonalEdgeStyle;rounded=0;orthogonalLoop=1;jettySize=auto;html=1;endArrow=oval;endFill=0;exitX=1;exitY=0.25;exitDx=0;exitDy=0;" parent="1" source="Hz8rqVoHaeQYQRgCHm7I-5" edge="1">
          <mxGeometry relative="1" as="geometry">
            <mxPoint x="880" y="360" as="targetPoint" />
          </mxGeometry>
        </mxCell>
        <mxCell id="X5VYXHr65bgpFRcitx1M-88" style="edgeStyle=orthogonalEdgeStyle;rounded=0;orthogonalLoop=1;jettySize=auto;html=1;endArrow=oval;endFill=0;" parent="1" source="Hz8rqVoHaeQYQRgCHm7I-5" edge="1">
          <mxGeometry relative="1" as="geometry">
            <mxPoint x="880" y="380" as="targetPoint" />
            <Array as="points">
              <mxPoint x="880" y="380" />
              <mxPoint x="880" y="380" />
            </Array>
          </mxGeometry>
        </mxCell>
        <mxCell id="Hz8rqVoHaeQYQRgCHm7I-5" value="Attori" style="rounded=0;whiteSpace=wrap;html=1;fillColor=#fff2cc;strokeColor=#d6b656;" parent="1" vertex="1">
          <mxGeometry x="760" y="350" width="90" height="40" as="geometry" />
        </mxCell>
        <mxCell id="X5VYXHr65bgpFRcitx1M-78" style="edgeStyle=orthogonalEdgeStyle;rounded=0;orthogonalLoop=1;jettySize=auto;html=1;endArrow=oval;endFill=1;" parent="1" source="Hz8rqVoHaeQYQRgCHm7I-8" edge="1">
          <mxGeometry relative="1" as="geometry">
            <mxPoint x="440" y="660" as="targetPoint" />
            <Array as="points">
              <mxPoint x="440" y="650" />
              <mxPoint x="440" y="650" />
            </Array>
          </mxGeometry>
        </mxCell>
        <mxCell id="X5VYXHr65bgpFRcitx1M-80" style="edgeStyle=orthogonalEdgeStyle;rounded=0;orthogonalLoop=1;jettySize=auto;html=1;endArrow=oval;endFill=0;" parent="1" source="Hz8rqVoHaeQYQRgCHm7I-8" edge="1">
          <mxGeometry relative="1" as="geometry">
            <mxPoint x="500" y="660" as="targetPoint" />
            <Array as="points">
              <mxPoint x="500" y="660" />
              <mxPoint x="500" y="660" />
            </Array>
          </mxGeometry>
        </mxCell>
        <mxCell id="Hz8rqVoHaeQYQRgCHm7I-8" value="Premio" style="rounded=0;whiteSpace=wrap;html=1;fillColor=#fff2cc;strokeColor=#d6b656;" parent="1" vertex="1">
          <mxGeometry x="427.5" y="590" width="90" height="40" as="geometry" />
        </mxCell>
        <mxCell id="Hz8rqVoHaeQYQRgCHm7I-38" style="edgeStyle=orthogonalEdgeStyle;rounded=0;orthogonalLoop=1;jettySize=auto;html=1;strokeColor=none;" parent="1" edge="1">
          <mxGeometry relative="1" as="geometry">
            <mxPoint x="460" y="940" as="targetPoint" />
            <mxPoint x="620" y="820" as="sourcePoint" />
          </mxGeometry>
        </mxCell>
        <mxCell id="Hz8rqVoHaeQYQRgCHm7I-56" style="edgeStyle=orthogonalEdgeStyle;rounded=0;orthogonalLoop=1;jettySize=auto;html=1;endArrow=none;endFill=0;" parent="1" source="Hz8rqVoHaeQYQRgCHm7I-55" target="Hz8rqVoHaeQYQRgCHm7I-8" edge="1">
          <mxGeometry relative="1" as="geometry" />
        </mxCell>
        <mxCell id="CA8DIJyEQ-BG8HpjzGWb-9" style="edgeStyle=orthogonalEdgeStyle;rounded=0;orthogonalLoop=1;jettySize=auto;html=1;entryX=0.5;entryY=1;entryDx=0;entryDy=0;endArrow=none;endFill=0;" parent="1" source="Hz8rqVoHaeQYQRgCHm7I-55" target="Hz8rqVoHaeQYQRgCHm7I-1" edge="1">
          <mxGeometry relative="1" as="geometry">
            <mxPoint x="470" y="380" as="targetPoint" />
          </mxGeometry>
        </mxCell>
        <mxCell id="Hz8rqVoHaeQYQRgCHm7I-55" value="Vinto" style="rhombus;whiteSpace=wrap;html=1;fillColor=#fff2cc;strokeColor=#d6b656;" parent="1" vertex="1">
          <mxGeometry x="431.25" y="460" width="82.5" height="60" as="geometry" />
        </mxCell>
        <mxCell id="Hz8rqVoHaeQYQRgCHm7I-73" style="edgeStyle=orthogonalEdgeStyle;rounded=0;orthogonalLoop=1;jettySize=auto;html=1;endArrow=none;endFill=0;" parent="1" source="Hz8rqVoHaeQYQRgCHm7I-70" target="Hz8rqVoHaeQYQRgCHm7I-8" edge="1">
          <mxGeometry relative="1" as="geometry" />
        </mxCell>
        <mxCell id="Hz8rqVoHaeQYQRgCHm7I-70" value="Vinto" style="rhombus;whiteSpace=wrap;html=1;fillColor=#fff2cc;strokeColor=#d6b656;" parent="1" vertex="1">
          <mxGeometry x="765" y="580" width="80" height="60" as="geometry" />
        </mxCell>
        <mxCell id="CA8DIJyEQ-BG8HpjzGWb-4" style="edgeStyle=orthogonalEdgeStyle;rounded=0;orthogonalLoop=1;jettySize=auto;html=1;endArrow=none;endFill=0;" parent="1" source="CA8DIJyEQ-BG8HpjzGWb-3" target="CA8DIJyEQ-BG8HpjzGWb-5" edge="1">
          <mxGeometry relative="1" as="geometry">
            <mxPoint x="350" y="570" as="targetPoint" />
          </mxGeometry>
        </mxCell>
        <mxCell id="CA8DIJyEQ-BG8HpjzGWb-3" value="Direzione" style="rhombus;whiteSpace=wrap;html=1;fillColor=#fff2cc;strokeColor=#d6b656;" parent="1" vertex="1">
          <mxGeometry x="310" y="460" width="80" height="60" as="geometry" />
        </mxCell>
        <mxCell id="CA8DIJyEQ-BG8HpjzGWb-6" style="edgeStyle=orthogonalEdgeStyle;rounded=0;orthogonalLoop=1;jettySize=auto;html=1;endArrow=none;endFill=0;" parent="1" source="CA8DIJyEQ-BG8HpjzGWb-5" target="CA8DIJyEQ-BG8HpjzGWb-7" edge="1">
          <mxGeometry relative="1" as="geometry">
            <mxPoint x="350" y="610" as="targetPoint" />
          </mxGeometry>
        </mxCell>
        <mxCell id="X5VYXHr65bgpFRcitx1M-82" style="edgeStyle=orthogonalEdgeStyle;rounded=0;orthogonalLoop=1;jettySize=auto;html=1;endArrow=oval;endFill=1;" parent="1" source="CA8DIJyEQ-BG8HpjzGWb-5" edge="1">
          <mxGeometry relative="1" as="geometry">
            <mxPoint x="245" y="650" as="targetPoint" />
          </mxGeometry>
        </mxCell>
        <mxCell id="X5VYXHr65bgpFRcitx1M-91" style="edgeStyle=orthogonalEdgeStyle;rounded=0;orthogonalLoop=1;jettySize=auto;html=1;endArrow=oval;endFill=0;exitX=0;exitY=0.75;exitDx=0;exitDy=0;" parent="1" source="CA8DIJyEQ-BG8HpjzGWb-5" edge="1">
          <mxGeometry relative="1" as="geometry">
            <mxPoint x="180" y="620" as="targetPoint" />
            <Array as="points" />
          </mxGeometry>
        </mxCell>
        <mxCell id="X5VYXHr65bgpFRcitx1M-92" style="edgeStyle=orthogonalEdgeStyle;rounded=0;orthogonalLoop=1;jettySize=auto;html=1;exitX=0;exitY=0.25;exitDx=0;exitDy=0;endArrow=oval;endFill=0;" parent="1" source="CA8DIJyEQ-BG8HpjzGWb-5" edge="1">
          <mxGeometry relative="1" as="geometry">
            <mxPoint x="180" y="600" as="targetPoint" />
            <Array as="points">
              <mxPoint x="180" y="600" />
              <mxPoint x="180" y="600" />
            </Array>
          </mxGeometry>
        </mxCell>
        <mxCell id="CA8DIJyEQ-BG8HpjzGWb-5" value="Regista" style="rounded=0;whiteSpace=wrap;html=1;fillColor=#fff2cc;strokeColor=#d6b656;" parent="1" vertex="1">
          <mxGeometry x="200" y="590" width="90" height="40" as="geometry" />
        </mxCell>
        <mxCell id="CA8DIJyEQ-BG8HpjzGWb-8" style="edgeStyle=orthogonalEdgeStyle;rounded=0;orthogonalLoop=1;jettySize=auto;html=1;endArrow=none;endFill=0;" parent="1" source="CA8DIJyEQ-BG8HpjzGWb-7" target="Hz8rqVoHaeQYQRgCHm7I-8" edge="1">
          <mxGeometry relative="1" as="geometry" />
        </mxCell>
        <mxCell id="CA8DIJyEQ-BG8HpjzGWb-7" value="Premiazione" style="rhombus;whiteSpace=wrap;html=1;fillColor=#fff2cc;strokeColor=#d6b656;" parent="1" vertex="1">
          <mxGeometry x="310" y="575" width="90" height="70" as="geometry" />
        </mxCell>
        <mxCell id="CA8DIJyEQ-BG8HpjzGWb-13" style="edgeStyle=orthogonalEdgeStyle;rounded=0;orthogonalLoop=1;jettySize=auto;html=1;endArrow=none;endFill=0;" parent="1" source="CA8DIJyEQ-BG8HpjzGWb-12" target="CA8DIJyEQ-BG8HpjzGWb-14" edge="1">
          <mxGeometry relative="1" as="geometry">
            <mxPoint x="473.75" y="170" as="targetPoint" />
          </mxGeometry>
        </mxCell>
        <mxCell id="CA8DIJyEQ-BG8HpjzGWb-12" value="Codifica" style="rhombus;whiteSpace=wrap;html=1;fillColor=#d5e8d4;strokeColor=#82b366;" parent="1" vertex="1">
          <mxGeometry x="430" y="220" width="87.5" height="60" as="geometry" />
        </mxCell>
        <mxCell id="CA8DIJyEQ-BG8HpjzGWb-19" style="edgeStyle=orthogonalEdgeStyle;rounded=0;orthogonalLoop=1;jettySize=auto;html=1;endArrow=none;endFill=0;" parent="1" source="CA8DIJyEQ-BG8HpjzGWb-14" edge="1">
          <mxGeometry relative="1" as="geometry">
            <mxPoint x="390" y="50" as="targetPoint" />
            <Array as="points">
              <mxPoint x="474" y="81" />
              <mxPoint x="475" y="81" />
              <mxPoint x="475" y="50" />
            </Array>
          </mxGeometry>
        </mxCell>
        <mxCell id="CA8DIJyEQ-BG8HpjzGWb-24" style="edgeStyle=orthogonalEdgeStyle;rounded=0;orthogonalLoop=1;jettySize=auto;html=1;exitX=0.75;exitY=0;exitDx=0;exitDy=0;entryX=0;entryY=0.5;entryDx=0;entryDy=0;endArrow=none;endFill=0;" parent="1" source="CA8DIJyEQ-BG8HpjzGWb-14" target="CA8DIJyEQ-BG8HpjzGWb-25" edge="1">
          <mxGeometry relative="1" as="geometry">
            <mxPoint x="590" y="130" as="targetPoint" />
          </mxGeometry>
        </mxCell>
        <mxCell id="CA8DIJyEQ-BG8HpjzGWb-14" value="Film Codificato" style="rounded=0;whiteSpace=wrap;html=1;fillColor=#d5e8d4;strokeColor=#82b366;" parent="1" vertex="1">
          <mxGeometry x="415.62" y="110" width="144.38" height="40" as="geometry" />
        </mxCell>
        <mxCell id="CA8DIJyEQ-BG8HpjzGWb-16" style="edgeStyle=orthogonalEdgeStyle;rounded=0;orthogonalLoop=1;jettySize=auto;html=1;endArrow=none;endFill=0;" parent="1" source="CA8DIJyEQ-BG8HpjzGWb-15" target="CA8DIJyEQ-BG8HpjzGWb-17" edge="1">
          <mxGeometry relative="1" as="geometry">
            <mxPoint x="300" y="132.5" as="targetPoint" />
          </mxGeometry>
        </mxCell>
        <mxCell id="CA8DIJyEQ-BG8HpjzGWb-15" value="Formato Audio" style="rounded=0;whiteSpace=wrap;html=1;fillColor=#d5e8d4;strokeColor=#82b366;" parent="1" vertex="1">
          <mxGeometry x="50" y="112.5" width="110" height="35" as="geometry" />
        </mxCell>
        <mxCell id="CA8DIJyEQ-BG8HpjzGWb-18" style="edgeStyle=orthogonalEdgeStyle;rounded=0;orthogonalLoop=1;jettySize=auto;html=1;endArrow=none;endFill=0;" parent="1" source="CA8DIJyEQ-BG8HpjzGWb-17" target="CA8DIJyEQ-BG8HpjzGWb-14" edge="1">
          <mxGeometry relative="1" as="geometry" />
        </mxCell>
        <mxCell id="CA8DIJyEQ-BG8HpjzGWb-17" value="Codifica Audio" style="rhombus;whiteSpace=wrap;html=1;fillColor=#d5e8d4;strokeColor=#82b366;" parent="1" vertex="1">
          <mxGeometry x="250" y="96.25" width="90" height="67.5" as="geometry" />
        </mxCell>
        <mxCell id="CA8DIJyEQ-BG8HpjzGWb-21" style="edgeStyle=orthogonalEdgeStyle;rounded=0;orthogonalLoop=1;jettySize=auto;html=1;endArrow=none;endFill=0;" parent="1" source="CA8DIJyEQ-BG8HpjzGWb-20" target="CA8DIJyEQ-BG8HpjzGWb-22" edge="1">
          <mxGeometry relative="1" as="geometry">
            <mxPoint x="220" y="50" as="targetPoint" />
          </mxGeometry>
        </mxCell>
        <mxCell id="CA8DIJyEQ-BG8HpjzGWb-20" value="Codifica Video" style="rhombus;whiteSpace=wrap;html=1;fillColor=#d5e8d4;strokeColor=#82b366;" parent="1" vertex="1">
          <mxGeometry x="310" y="20" width="80" height="60" as="geometry" />
        </mxCell>
        <mxCell id="CA8DIJyEQ-BG8HpjzGWb-22" value="Formato Video" style="rounded=0;whiteSpace=wrap;html=1;fillColor=#d5e8d4;strokeColor=#82b366;" parent="1" vertex="1">
          <mxGeometry x="120" y="35" width="100" height="30" as="geometry" />
        </mxCell>
        <mxCell id="CA8DIJyEQ-BG8HpjzGWb-26" style="edgeStyle=orthogonalEdgeStyle;rounded=0;orthogonalLoop=1;jettySize=auto;html=1;endArrow=none;endFill=0;" parent="1" source="CA8DIJyEQ-BG8HpjzGWb-25" target="CA8DIJyEQ-BG8HpjzGWb-27" edge="1">
          <mxGeometry relative="1" as="geometry">
            <mxPoint x="700" y="62.5" as="targetPoint" />
          </mxGeometry>
        </mxCell>
        <mxCell id="CA8DIJyEQ-BG8HpjzGWb-25" value="Utilizzo" style="rhombus;whiteSpace=wrap;html=1;fillColor=#d5e8d4;strokeColor=#82b366;" parent="1" vertex="1">
          <mxGeometry x="580" y="20" width="90" height="65" as="geometry" />
        </mxCell>
        <mxCell id="CA8DIJyEQ-BG8HpjzGWb-27" value="Codec" style="rounded=0;whiteSpace=wrap;html=1;fillColor=#d5e8d4;strokeColor=#82b366;" parent="1" vertex="1">
          <mxGeometry x="872.5" y="35" width="100" height="37.5" as="geometry" />
        </mxCell>
        <mxCell id="CA8DIJyEQ-BG8HpjzGWb-33" value="Partecipazione" style="rhombus;whiteSpace=wrap;html=1;fillColor=#fff2cc;strokeColor=#d6b656;" parent="1" vertex="1">
          <mxGeometry x="590" y="332.5" width="90" height="75" as="geometry" />
        </mxCell>
        <mxCell id="CA8DIJyEQ-BG8HpjzGWb-36" style="edgeStyle=orthogonalEdgeStyle;rounded=0;orthogonalLoop=1;jettySize=auto;html=1;endArrow=none;endFill=0;entryX=-0.009;entryY=0.188;entryDx=0;entryDy=0;entryPerimeter=0;" parent="1" source="CA8DIJyEQ-BG8HpjzGWb-35" target="CA8DIJyEQ-BG8HpjzGWb-37" edge="1">
          <mxGeometry relative="1" as="geometry">
            <mxPoint x="950" y="250" as="targetPoint" />
          </mxGeometry>
        </mxCell>
        <mxCell id="CA8DIJyEQ-BG8HpjzGWb-35" value="Cronologia" style="rhombus;whiteSpace=wrap;html=1;fillColor=#f8cecc;strokeColor=#b85450;" parent="1" vertex="1">
          <mxGeometry x="690" y="160" width="90" height="60" as="geometry" />
        </mxCell>
        <mxCell id="CA8DIJyEQ-BG8HpjzGWb-48" style="edgeStyle=orthogonalEdgeStyle;rounded=0;orthogonalLoop=1;jettySize=auto;html=1;endArrow=none;endFill=0;" parent="1" source="CA8DIJyEQ-BG8HpjzGWb-37" target="CA8DIJyEQ-BG8HpjzGWb-49" edge="1">
          <mxGeometry relative="1" as="geometry">
            <mxPoint x="1150" y="265" as="targetPoint" />
          </mxGeometry>
        </mxCell>
        <mxCell id="CA8DIJyEQ-BG8HpjzGWb-60" value="" style="edgeStyle=orthogonalEdgeStyle;rounded=0;orthogonalLoop=1;jettySize=auto;html=1;endArrow=none;endFill=0;" parent="1" source="CA8DIJyEQ-BG8HpjzGWb-37" target="CA8DIJyEQ-BG8HpjzGWb-59" edge="1">
          <mxGeometry relative="1" as="geometry" />
        </mxCell>
        <mxCell id="X5VYXHr65bgpFRcitx1M-98" style="edgeStyle=orthogonalEdgeStyle;rounded=0;orthogonalLoop=1;jettySize=auto;html=1;exitX=0.658;exitY=0.013;exitDx=0;exitDy=0;exitPerimeter=0;endArrow=oval;endFill=1;" parent="1" source="CA8DIJyEQ-BG8HpjzGWb-37" edge="1">
          <mxGeometry relative="1" as="geometry">
            <mxPoint x="1050" y="190" as="targetPoint" />
            <Array as="points">
              <mxPoint x="1050" y="221" />
              <mxPoint x="1050" y="190" />
            </Array>
          </mxGeometry>
        </mxCell>
        <mxCell id="X5VYXHr65bgpFRcitx1M-100" style="edgeStyle=orthogonalEdgeStyle;rounded=0;orthogonalLoop=1;jettySize=auto;html=1;endArrow=none;endFill=0;" parent="1" target="X5VYXHr65bgpFRcitx1M-103" edge="1">
          <mxGeometry relative="1" as="geometry">
            <mxPoint x="990" y="160" as="targetPoint" />
            <mxPoint x="990" y="220" as="sourcePoint" />
            <Array as="points">
              <mxPoint x="991" y="220" />
            </Array>
          </mxGeometry>
        </mxCell>
        <mxCell id="TzTqIZtNaXJvueZtooWY-65" style="edgeStyle=orthogonalEdgeStyle;rounded=0;orthogonalLoop=1;jettySize=auto;html=1;entryX=0.5;entryY=0;entryDx=0;entryDy=0;endArrow=none;endFill=0;" parent="1" source="CA8DIJyEQ-BG8HpjzGWb-51" target="CA8DIJyEQ-BG8HpjzGWb-57" edge="1">
          <mxGeometry relative="1" as="geometry">
            <mxPoint x="1270" y="400" as="targetPoint" />
          </mxGeometry>
        </mxCell>
        <mxCell id="CA8DIJyEQ-BG8HpjzGWb-37" value="Utente" style="rounded=0;whiteSpace=wrap;html=1;fillColor=#f8cecc;strokeColor=#b85450;" parent="1" vertex="1">
          <mxGeometry x="960" y="220" width="140" height="65" as="geometry" />
        </mxCell>
        <mxCell id="CA8DIJyEQ-BG8HpjzGWb-43" style="edgeStyle=orthogonalEdgeStyle;rounded=0;orthogonalLoop=1;jettySize=auto;html=1;endArrow=none;endFill=0;" parent="1" source="CA8DIJyEQ-BG8HpjzGWb-42" target="CA8DIJyEQ-BG8HpjzGWb-37" edge="1">
          <mxGeometry relative="1" as="geometry" />
        </mxCell>
        <mxCell id="X5VYXHr65bgpFRcitx1M-95" style="edgeStyle=orthogonalEdgeStyle;rounded=0;orthogonalLoop=1;jettySize=auto;html=1;exitX=1;exitY=0;exitDx=0;exitDy=0;endArrow=oval;endFill=0;" parent="1" source="CA8DIJyEQ-BG8HpjzGWb-42" edge="1">
          <mxGeometry relative="1" as="geometry">
            <mxPoint x="810" y="240" as="targetPoint" />
            <Array as="points">
              <mxPoint x="805" y="248" />
              <mxPoint x="810" y="248" />
            </Array>
          </mxGeometry>
        </mxCell>
        <mxCell id="CA8DIJyEQ-BG8HpjzGWb-42" value="Rating Personalizzato" style="rhombus;whiteSpace=wrap;html=1;fillColor=#f8cecc;strokeColor=#b85450;" parent="1" vertex="1">
          <mxGeometry x="705" y="230" width="100" height="70" as="geometry" />
        </mxCell>
        <mxCell id="CA8DIJyEQ-BG8HpjzGWb-45" style="edgeStyle=orthogonalEdgeStyle;rounded=0;orthogonalLoop=1;jettySize=auto;html=1;endArrow=none;endFill=0;" parent="1" source="CA8DIJyEQ-BG8HpjzGWb-44" target="CA8DIJyEQ-BG8HpjzGWb-46" edge="1">
          <mxGeometry relative="1" as="geometry">
            <mxPoint x="1270" y="180" as="targetPoint" />
          </mxGeometry>
        </mxCell>
        <mxCell id="CA8DIJyEQ-BG8HpjzGWb-52" style="edgeStyle=orthogonalEdgeStyle;rounded=0;orthogonalLoop=1;jettySize=auto;html=1;endArrow=none;endFill=0;" parent="1" source="CA8DIJyEQ-BG8HpjzGWb-44" target="CA8DIJyEQ-BG8HpjzGWb-53" edge="1">
          <mxGeometry relative="1" as="geometry">
            <mxPoint x="1480" y="290" as="targetPoint" />
          </mxGeometry>
        </mxCell>
        <mxCell id="TzTqIZtNaXJvueZtooWY-15" style="edgeStyle=orthogonalEdgeStyle;rounded=0;orthogonalLoop=1;jettySize=auto;html=1;endArrow=oval;endFill=0;" parent="1" source="CA8DIJyEQ-BG8HpjzGWb-44" target="TzTqIZtNaXJvueZtooWY-17" edge="1">
          <mxGeometry relative="1" as="geometry">
            <mxPoint x="1393" y="48.5" as="targetPoint" />
            <Array as="points">
              <mxPoint x="1374" y="73.5" />
              <mxPoint x="1374" y="73.5" />
            </Array>
          </mxGeometry>
        </mxCell>
        <mxCell id="TzTqIZtNaXJvueZtooWY-18" style="edgeStyle=orthogonalEdgeStyle;rounded=0;orthogonalLoop=1;jettySize=auto;html=1;endArrow=oval;endFill=0;exitX=1.009;exitY=0.087;exitDx=0;exitDy=0;exitPerimeter=0;entryX=0.01;entryY=0.52;entryDx=0;entryDy=0;entryPerimeter=0;" parent="1" source="CA8DIJyEQ-BG8HpjzGWb-44" target="TzTqIZtNaXJvueZtooWY-19" edge="1">
          <mxGeometry relative="1" as="geometry">
            <mxPoint x="1474" y="123.5" as="targetPoint" />
            <Array as="points">
              <mxPoint x="1474" y="98.5" />
              <mxPoint x="1505" y="99.5" />
            </Array>
          </mxGeometry>
        </mxCell>
        <mxCell id="TzTqIZtNaXJvueZtooWY-21" style="edgeStyle=orthogonalEdgeStyle;rounded=0;orthogonalLoop=1;jettySize=auto;html=1;endArrow=oval;endFill=0;entryX=-0.011;entryY=0.48;entryDx=0;entryDy=0;entryPerimeter=0;" parent="1" target="TzTqIZtNaXJvueZtooWY-22" edge="1">
          <mxGeometry relative="1" as="geometry">
            <mxPoint x="1554" y="113.25" as="targetPoint" />
            <mxPoint x="1464" y="115.25" as="sourcePoint" />
            <Array as="points">
              <mxPoint x="1474" y="115.5" />
            </Array>
          </mxGeometry>
        </mxCell>
        <mxCell id="TzTqIZtNaXJvueZtooWY-26" style="edgeStyle=orthogonalEdgeStyle;rounded=0;orthogonalLoop=1;jettySize=auto;html=1;exitX=0.931;exitY=-0.007;exitDx=0;exitDy=0;exitPerimeter=0;endArrow=oval;endFill=0;entryX=0.305;entryY=1;entryDx=0;entryDy=0;entryPerimeter=0;" parent="1" source="CA8DIJyEQ-BG8HpjzGWb-44" target="TzTqIZtNaXJvueZtooWY-27" edge="1">
          <mxGeometry relative="1" as="geometry">
            <mxPoint x="1434" y="83.5" as="targetPoint" />
          </mxGeometry>
        </mxCell>
        <mxCell id="TzTqIZtNaXJvueZtooWY-33" style="edgeStyle=orthogonalEdgeStyle;rounded=0;orthogonalLoop=1;jettySize=auto;html=1;exitX=0.995;exitY=0.961;exitDx=0;exitDy=0;exitPerimeter=0;endArrow=oval;endFill=0;" parent="1" source="CA8DIJyEQ-BG8HpjzGWb-44" target="TzTqIZtNaXJvueZtooWY-31" edge="1">
          <mxGeometry relative="1" as="geometry">
            <Array as="points">
              <mxPoint x="1463" y="153.5" />
            </Array>
          </mxGeometry>
        </mxCell>
        <mxCell id="TzTqIZtNaXJvueZtooWY-38" style="edgeStyle=orthogonalEdgeStyle;rounded=0;orthogonalLoop=1;jettySize=auto;html=1;exitX=0.106;exitY=-0.047;exitDx=0;exitDy=0;exitPerimeter=0;endArrow=oval;endFill=1;" parent="1" source="CA8DIJyEQ-BG8HpjzGWb-44" target="TzTqIZtNaXJvueZtooWY-14" edge="1">
          <mxGeometry relative="1" as="geometry" />
        </mxCell>
        <mxCell id="TzTqIZtNaXJvueZtooWY-40" style="edgeStyle=orthogonalEdgeStyle;rounded=0;orthogonalLoop=1;jettySize=auto;html=1;endArrow=oval;endFill=0;" parent="1" target="TzTqIZtNaXJvueZtooWY-41" edge="1">
          <mxGeometry relative="1" as="geometry">
            <mxPoint x="1423.75" y="73.5" as="targetPoint" />
            <mxPoint x="1423.75" y="93.5" as="sourcePoint" />
          </mxGeometry>
        </mxCell>
        <mxCell id="TzTqIZtNaXJvueZtooWY-45" style="edgeStyle=orthogonalEdgeStyle;rounded=0;orthogonalLoop=1;jettySize=auto;html=1;exitX=0.991;exitY=0.713;exitDx=0;exitDy=0;exitPerimeter=0;endArrow=oval;endFill=0;entryX=-0.008;entryY=0.553;entryDx=0;entryDy=0;entryPerimeter=0;" parent="1" source="CA8DIJyEQ-BG8HpjzGWb-44" target="TzTqIZtNaXJvueZtooWY-47" edge="1">
          <mxGeometry relative="1" as="geometry">
            <mxPoint x="1504" y="143.5" as="targetPoint" />
            <Array as="points">
              <mxPoint x="1503" y="136.5" />
            </Array>
          </mxGeometry>
        </mxCell>
        <mxCell id="CA8DIJyEQ-BG8HpjzGWb-44" value="Abbonamento" style="rounded=0;whiteSpace=wrap;html=1;fillColor=#f8cecc;strokeColor=#b85450;" parent="1" vertex="1">
          <mxGeometry x="1324" y="93.5" width="140" height="60" as="geometry" />
        </mxCell>
        <mxCell id="CA8DIJyEQ-BG8HpjzGWb-47" style="edgeStyle=orthogonalEdgeStyle;rounded=0;orthogonalLoop=1;jettySize=auto;html=1;entryX=0.75;entryY=0;entryDx=0;entryDy=0;endArrow=none;endFill=0;" parent="1" source="CA8DIJyEQ-BG8HpjzGWb-46" target="CA8DIJyEQ-BG8HpjzGWb-37" edge="1">
          <mxGeometry relative="1" as="geometry" />
        </mxCell>
        <mxCell id="TzTqIZtNaXJvueZtooWY-61" style="edgeStyle=orthogonalEdgeStyle;rounded=0;orthogonalLoop=1;jettySize=auto;html=1;endArrow=oval;endFill=0;" parent="1" source="CA8DIJyEQ-BG8HpjzGWb-46" target="TzTqIZtNaXJvueZtooWY-62" edge="1">
          <mxGeometry relative="1" as="geometry">
            <mxPoint x="1270" y="120" as="targetPoint" />
          </mxGeometry>
        </mxCell>
        <mxCell id="CA8DIJyEQ-BG8HpjzGWb-46" value="Acquisto" style="rhombus;whiteSpace=wrap;html=1;fillColor=#f8cecc;strokeColor=#b85450;" parent="1" vertex="1">
          <mxGeometry x="1150" y="83" width="80" height="80" as="geometry" />
        </mxCell>
        <mxCell id="CA8DIJyEQ-BG8HpjzGWb-50" style="edgeStyle=orthogonalEdgeStyle;rounded=0;orthogonalLoop=1;jettySize=auto;html=1;endArrow=none;endFill=0;" parent="1" source="CA8DIJyEQ-BG8HpjzGWb-49" target="CA8DIJyEQ-BG8HpjzGWb-51" edge="1">
          <mxGeometry relative="1" as="geometry">
            <mxPoint x="1270" y="265" as="targetPoint" />
          </mxGeometry>
        </mxCell>
        <mxCell id="CA8DIJyEQ-BG8HpjzGWb-49" value="Possesso" style="rhombus;whiteSpace=wrap;html=1;fillColor=#f8cecc;strokeColor=#b85450;" parent="1" vertex="1">
          <mxGeometry x="1130" y="221.25" width="90" height="62.5" as="geometry" />
        </mxCell>
        <mxCell id="twbjdaluW3R16mWwh6AZ-12" style="edgeStyle=orthogonalEdgeStyle;rounded=0;orthogonalLoop=1;jettySize=auto;html=1;exitX=0.195;exitY=0.172;exitDx=0;exitDy=0;exitPerimeter=0;endArrow=oval;endFill=1;" edge="1" parent="1" source="CA8DIJyEQ-BG8HpjzGWb-51" target="twbjdaluW3R16mWwh6AZ-10">
          <mxGeometry relative="1" as="geometry">
            <mxPoint x="1284" y="228" as="sourcePoint" />
            <Array as="points">
              <mxPoint x="1286" y="240" />
            </Array>
          </mxGeometry>
        </mxCell>
        <mxCell id="twbjdaluW3R16mWwh6AZ-13" style="edgeStyle=orthogonalEdgeStyle;rounded=0;orthogonalLoop=1;jettySize=auto;html=1;endArrow=oval;endFill=0;" edge="1" parent="1">
          <mxGeometry relative="1" as="geometry">
            <mxPoint x="1401" y="237.67" as="targetPoint" />
            <mxPoint x="1365" y="237.67" as="sourcePoint" />
          </mxGeometry>
        </mxCell>
        <mxCell id="CA8DIJyEQ-BG8HpjzGWb-51" value="Dati Fatturazione" style="rounded=0;whiteSpace=wrap;html=1;fillColor=#f8cecc;strokeColor=#b85450;" parent="1" vertex="1">
          <mxGeometry x="1265" y="233.75" width="100" height="36.25" as="geometry" />
        </mxCell>
        <mxCell id="CA8DIJyEQ-BG8HpjzGWb-54" style="edgeStyle=orthogonalEdgeStyle;rounded=0;orthogonalLoop=1;jettySize=auto;html=1;endArrow=none;endFill=0;" parent="1" source="CA8DIJyEQ-BG8HpjzGWb-53" target="CA8DIJyEQ-BG8HpjzGWb-55" edge="1">
          <mxGeometry relative="1" as="geometry">
            <mxPoint x="1480" y="370" as="targetPoint" />
          </mxGeometry>
        </mxCell>
        <mxCell id="CA8DIJyEQ-BG8HpjzGWb-53" value="Attivazione" style="rhombus;whiteSpace=wrap;html=1;fillColor=#f8cecc;strokeColor=#b85450;" parent="1" vertex="1">
          <mxGeometry x="1440" y="250" width="80" height="60" as="geometry" />
        </mxCell>
        <mxCell id="TzTqIZtNaXJvueZtooWY-53" style="edgeStyle=orthogonalEdgeStyle;rounded=0;orthogonalLoop=1;jettySize=auto;html=1;endArrow=oval;endFill=0;exitX=0.991;exitY=0.192;exitDx=0;exitDy=0;exitPerimeter=0;entryX=-0.006;entryY=0.411;entryDx=0;entryDy=0;entryPerimeter=0;" parent="1" source="CA8DIJyEQ-BG8HpjzGWb-55" target="TzTqIZtNaXJvueZtooWY-54" edge="1">
          <mxGeometry relative="1" as="geometry">
            <mxPoint x="1560" y="388" as="targetPoint" />
          </mxGeometry>
        </mxCell>
        <mxCell id="TzTqIZtNaXJvueZtooWY-55" style="edgeStyle=orthogonalEdgeStyle;rounded=0;orthogonalLoop=1;jettySize=auto;html=1;endArrow=oval;endFill=0;" parent="1" source="CA8DIJyEQ-BG8HpjzGWb-55" edge="1">
          <mxGeometry relative="1" as="geometry">
            <mxPoint x="1570" y="410" as="targetPoint" />
            <Array as="points">
              <mxPoint x="1560" y="410" />
              <mxPoint x="1560" y="410" />
            </Array>
          </mxGeometry>
        </mxCell>
        <mxCell id="TzTqIZtNaXJvueZtooWY-66" style="edgeStyle=orthogonalEdgeStyle;rounded=0;orthogonalLoop=1;jettySize=auto;html=1;endArrow=oval;endFill=1;entryX=0.363;entryY=0.033;entryDx=0;entryDy=0;entryPerimeter=0;" parent="1" source="CA8DIJyEQ-BG8HpjzGWb-55" target="TzTqIZtNaXJvueZtooWY-67" edge="1">
          <mxGeometry relative="1" as="geometry">
            <mxPoint x="1480" y="450" as="targetPoint" />
            <Array as="points">
              <mxPoint x="1450" y="450" />
              <mxPoint x="1449" y="450" />
            </Array>
          </mxGeometry>
        </mxCell>
        <mxCell id="twbjdaluW3R16mWwh6AZ-1" style="edgeStyle=orthogonalEdgeStyle;rounded=0;orthogonalLoop=1;jettySize=auto;html=1;endArrow=none;endFill=0;" edge="1" parent="1" source="CA8DIJyEQ-BG8HpjzGWb-55">
          <mxGeometry relative="1" as="geometry">
            <mxPoint x="1224" y="400" as="targetPoint" />
          </mxGeometry>
        </mxCell>
        <mxCell id="CA8DIJyEQ-BG8HpjzGWb-55" value="Fattura" style="rounded=0;whiteSpace=wrap;html=1;fillColor=#f8cecc;strokeColor=#b85450;" parent="1" vertex="1">
          <mxGeometry x="1425" y="380" width="110" height="40" as="geometry" />
        </mxCell>
        <mxCell id="CA8DIJyEQ-BG8HpjzGWb-58" style="edgeStyle=orthogonalEdgeStyle;rounded=0;orthogonalLoop=1;jettySize=auto;html=1;endArrow=none;endFill=0;entryX=0.161;entryY=0.018;entryDx=0;entryDy=0;entryPerimeter=0;" parent="1" source="CA8DIJyEQ-BG8HpjzGWb-57" target="CA8DIJyEQ-BG8HpjzGWb-55" edge="1">
          <mxGeometry relative="1" as="geometry" />
        </mxCell>
        <mxCell id="TzTqIZtNaXJvueZtooWY-59" style="edgeStyle=orthogonalEdgeStyle;rounded=0;orthogonalLoop=1;jettySize=auto;html=1;endArrow=oval;endFill=0;" parent="1" source="CA8DIJyEQ-BG8HpjzGWb-57" edge="1">
          <mxGeometry relative="1" as="geometry">
            <mxPoint x="1315" y="372" as="targetPoint" />
          </mxGeometry>
        </mxCell>
        <mxCell id="CA8DIJyEQ-BG8HpjzGWb-57" value="Pagamento" style="rhombus;whiteSpace=wrap;html=1;fillColor=#f8cecc;strokeColor=#b85450;" parent="1" vertex="1">
          <mxGeometry x="1270" y="300" width="90" height="60" as="geometry" />
        </mxCell>
        <mxCell id="CA8DIJyEQ-BG8HpjzGWb-61" style="edgeStyle=orthogonalEdgeStyle;rounded=0;orthogonalLoop=1;jettySize=auto;html=1;endArrow=none;endFill=0;" parent="1" source="CA8DIJyEQ-BG8HpjzGWb-59" edge="1">
          <mxGeometry relative="1" as="geometry">
            <mxPoint x="1015" y="500" as="targetPoint" />
          </mxGeometry>
        </mxCell>
        <mxCell id="CA8DIJyEQ-BG8HpjzGWb-59" value="Inizializzazione" style="rhombus;whiteSpace=wrap;html=1;fillColor=#f8cecc;strokeColor=#b85450;rounded=0;" parent="1" vertex="1">
          <mxGeometry x="967.5" y="365" width="95" height="70" as="geometry" />
        </mxCell>
        <mxCell id="CA8DIJyEQ-BG8HpjzGWb-63" style="edgeStyle=orthogonalEdgeStyle;rounded=0;orthogonalLoop=1;jettySize=auto;html=1;endArrow=none;endFill=0;" parent="1" source="CA8DIJyEQ-BG8HpjzGWb-62" target="CA8DIJyEQ-BG8HpjzGWb-64" edge="1">
          <mxGeometry relative="1" as="geometry">
            <mxPoint x="1110" y="520" as="targetPoint" />
          </mxGeometry>
        </mxCell>
        <mxCell id="CA8DIJyEQ-BG8HpjzGWb-67" style="edgeStyle=orthogonalEdgeStyle;rounded=0;orthogonalLoop=1;jettySize=auto;html=1;endArrow=none;endFill=0;" parent="1" source="CA8DIJyEQ-BG8HpjzGWb-62" target="CA8DIJyEQ-BG8HpjzGWb-68" edge="1">
          <mxGeometry relative="1" as="geometry">
            <mxPoint x="1015" y="610" as="targetPoint" />
          </mxGeometry>
        </mxCell>
        <mxCell id="TzTqIZtNaXJvueZtooWY-1" style="edgeStyle=orthogonalEdgeStyle;rounded=0;orthogonalLoop=1;jettySize=auto;html=1;endArrow=oval;endFill=1;" parent="1" source="CA8DIJyEQ-BG8HpjzGWb-62" edge="1">
          <mxGeometry relative="1" as="geometry">
            <mxPoint x="930" y="510" as="targetPoint" />
            <Array as="points">
              <mxPoint x="940" y="510" />
              <mxPoint x="940" y="510" />
            </Array>
          </mxGeometry>
        </mxCell>
        <mxCell id="TzTqIZtNaXJvueZtooWY-3" style="edgeStyle=orthogonalEdgeStyle;rounded=0;orthogonalLoop=1;jettySize=auto;html=1;endArrow=oval;endFill=1;" parent="1" source="CA8DIJyEQ-BG8HpjzGWb-62" edge="1">
          <mxGeometry relative="1" as="geometry">
            <mxPoint x="930" y="530" as="targetPoint" />
            <Array as="points">
              <mxPoint x="940" y="530" />
              <mxPoint x="940" y="530" />
            </Array>
          </mxGeometry>
        </mxCell>
        <mxCell id="TzTqIZtNaXJvueZtooWY-7" style="edgeStyle=orthogonalEdgeStyle;rounded=0;orthogonalLoop=1;jettySize=auto;html=1;endArrow=oval;endFill=0;" parent="1" edge="1">
          <mxGeometry relative="1" as="geometry">
            <mxPoint x="1060" y="480" as="targetPoint" />
            <mxPoint x="1059.8" y="500" as="sourcePoint" />
            <Array as="points">
              <mxPoint x="1059.8" y="500" />
              <mxPoint x="1059.8" y="462" />
            </Array>
          </mxGeometry>
        </mxCell>
        <mxCell id="CA8DIJyEQ-BG8HpjzGWb-62" value="Connessione" style="rounded=0;whiteSpace=wrap;html=1;fillColor=#f8cecc;strokeColor=#b85450;" parent="1" vertex="1">
          <mxGeometry x="960" y="500" width="110" height="40" as="geometry" />
        </mxCell>
        <mxCell id="CA8DIJyEQ-BG8HpjzGWb-65" style="edgeStyle=orthogonalEdgeStyle;rounded=0;orthogonalLoop=1;jettySize=auto;html=1;endArrow=none;endFill=0;" parent="1" source="CA8DIJyEQ-BG8HpjzGWb-64" target="CA8DIJyEQ-BG8HpjzGWb-66" edge="1">
          <mxGeometry relative="1" as="geometry">
            <mxPoint x="1250" y="520" as="targetPoint" />
          </mxGeometry>
        </mxCell>
        <mxCell id="CA8DIJyEQ-BG8HpjzGWb-64" value="Utilizzo" style="rhombus;whiteSpace=wrap;html=1;fillColor=#f8cecc;strokeColor=#b85450;" parent="1" vertex="1">
          <mxGeometry x="1160" y="490" width="90" height="60" as="geometry" />
        </mxCell>
        <mxCell id="TzTqIZtNaXJvueZtooWY-10" style="edgeStyle=orthogonalEdgeStyle;rounded=0;orthogonalLoop=1;jettySize=auto;html=1;endArrow=oval;endFill=0;" parent="1" source="CA8DIJyEQ-BG8HpjzGWb-66" target="TzTqIZtNaXJvueZtooWY-9" edge="1">
          <mxGeometry relative="1" as="geometry">
            <Array as="points">
              <mxPoint x="1375" y="550" />
              <mxPoint x="1375" y="550" />
            </Array>
          </mxGeometry>
        </mxCell>
        <mxCell id="TzTqIZtNaXJvueZtooWY-11" style="edgeStyle=orthogonalEdgeStyle;rounded=0;orthogonalLoop=1;jettySize=auto;html=1;endArrow=oval;endFill=1;" parent="1" source="CA8DIJyEQ-BG8HpjzGWb-66" edge="1">
          <mxGeometry relative="1" as="geometry">
            <mxPoint x="1405" y="570" as="targetPoint" />
          </mxGeometry>
        </mxCell>
        <mxCell id="CA8DIJyEQ-BG8HpjzGWb-66" value="Dispositivo" style="rounded=0;whiteSpace=wrap;html=1;fillColor=#f8cecc;strokeColor=#b85450;" parent="1" vertex="1">
          <mxGeometry x="1350" y="500" width="110" height="40" as="geometry" />
        </mxCell>
        <mxCell id="CA8DIJyEQ-BG8HpjzGWb-69" style="edgeStyle=orthogonalEdgeStyle;rounded=0;orthogonalLoop=1;jettySize=auto;html=1;endArrow=none;endFill=0;" parent="1" source="CA8DIJyEQ-BG8HpjzGWb-68" target="CA8DIJyEQ-BG8HpjzGWb-70" edge="1">
          <mxGeometry relative="1" as="geometry">
            <mxPoint x="1015" y="710" as="targetPoint" />
          </mxGeometry>
        </mxCell>
        <mxCell id="CA8DIJyEQ-BG8HpjzGWb-68" value="Richiesta" style="rhombus;whiteSpace=wrap;html=1;fillColor=#dae8fc;strokeColor=#6c8ebf;" parent="1" vertex="1">
          <mxGeometry x="972.5" y="600" width="85" height="60" as="geometry" />
        </mxCell>
        <mxCell id="CA8DIJyEQ-BG8HpjzGWb-72" style="edgeStyle=orthogonalEdgeStyle;rounded=0;orthogonalLoop=1;jettySize=auto;html=1;endArrow=none;endFill=0;" parent="1" source="CA8DIJyEQ-BG8HpjzGWb-70" target="CA8DIJyEQ-BG8HpjzGWb-73" edge="1">
          <mxGeometry relative="1" as="geometry">
            <mxPoint x="570" y="720" as="targetPoint" />
            <Array as="points">
              <mxPoint x="700" y="730" />
              <mxPoint x="700" y="730" />
            </Array>
          </mxGeometry>
        </mxCell>
        <mxCell id="CA8DIJyEQ-BG8HpjzGWb-75" style="edgeStyle=orthogonalEdgeStyle;rounded=0;orthogonalLoop=1;jettySize=auto;html=1;endArrow=none;endFill=0;" parent="1" source="CA8DIJyEQ-BG8HpjzGWb-70" target="CA8DIJyEQ-BG8HpjzGWb-76" edge="1">
          <mxGeometry relative="1" as="geometry">
            <mxPoint x="1130" y="730" as="targetPoint" />
          </mxGeometry>
        </mxCell>
        <mxCell id="twbjdaluW3R16mWwh6AZ-20" style="edgeStyle=orthogonalEdgeStyle;rounded=0;orthogonalLoop=1;jettySize=auto;html=1;endArrow=oval;endFill=0;exitX=1;exitY=0.75;exitDx=0;exitDy=0;" edge="1" parent="1" source="CA8DIJyEQ-BG8HpjzGWb-70">
          <mxGeometry relative="1" as="geometry">
            <mxPoint x="1092" y="740" as="targetPoint" />
          </mxGeometry>
        </mxCell>
        <mxCell id="twbjdaluW3R16mWwh6AZ-26" style="edgeStyle=orthogonalEdgeStyle;rounded=0;orthogonalLoop=1;jettySize=auto;html=1;endArrow=oval;endFill=0;" edge="1" parent="1">
          <mxGeometry relative="1" as="geometry">
            <mxPoint x="1092" y="720" as="targetPoint" />
            <mxPoint x="1068" y="720" as="sourcePoint" />
          </mxGeometry>
        </mxCell>
        <mxCell id="CA8DIJyEQ-BG8HpjzGWb-70" value="Visualizzazione" style="rounded=0;whiteSpace=wrap;html=1;fillColor=#dae8fc;strokeColor=#6c8ebf;" parent="1" vertex="1">
          <mxGeometry x="962.5" y="710" width="105" height="40" as="geometry" />
        </mxCell>
        <mxCell id="CA8DIJyEQ-BG8HpjzGWb-74" style="edgeStyle=orthogonalEdgeStyle;rounded=0;orthogonalLoop=1;jettySize=auto;html=1;entryX=0.25;entryY=1;entryDx=0;entryDy=0;exitX=0.5;exitY=0;exitDx=0;exitDy=0;endArrow=none;endFill=0;" parent="1" source="CA8DIJyEQ-BG8HpjzGWb-73" target="CA8DIJyEQ-BG8HpjzGWb-14" edge="1">
          <mxGeometry relative="1" as="geometry">
            <mxPoint x="410" y="230" as="targetPoint" />
            <Array as="points">
              <mxPoint x="139" y="230" />
              <mxPoint x="445" y="230" />
              <mxPoint x="445" y="150" />
            </Array>
          </mxGeometry>
        </mxCell>
        <mxCell id="CA8DIJyEQ-BG8HpjzGWb-73" value="Di" style="rhombus;whiteSpace=wrap;html=1;fillColor=#dae8fc;strokeColor=#6c8ebf;" parent="1" vertex="1">
          <mxGeometry x="90" y="700" width="98.12" height="60" as="geometry" />
        </mxCell>
        <mxCell id="CA8DIJyEQ-BG8HpjzGWb-77" style="edgeStyle=orthogonalEdgeStyle;rounded=0;orthogonalLoop=1;jettySize=auto;html=1;endArrow=none;endFill=0;" parent="1" source="CA8DIJyEQ-BG8HpjzGWb-76" target="CA8DIJyEQ-BG8HpjzGWb-78" edge="1">
          <mxGeometry relative="1" as="geometry">
            <mxPoint x="1015" y="940" as="targetPoint" />
          </mxGeometry>
        </mxCell>
        <mxCell id="CA8DIJyEQ-BG8HpjzGWb-76" value="Utilizzo di" style="rhombus;whiteSpace=wrap;html=1;fillColor=#dae8fc;strokeColor=#6c8ebf;" parent="1" vertex="1">
          <mxGeometry x="967.5" y="810" width="95" height="60" as="geometry" />
        </mxCell>
        <mxCell id="CA8DIJyEQ-BG8HpjzGWb-79" style="edgeStyle=orthogonalEdgeStyle;rounded=0;orthogonalLoop=1;jettySize=auto;html=1;endArrow=none;endFill=0;" parent="1" source="CA8DIJyEQ-BG8HpjzGWb-78" target="CA8DIJyEQ-BG8HpjzGWb-80" edge="1">
          <mxGeometry relative="1" as="geometry">
            <mxPoint x="870" y="940" as="targetPoint" />
          </mxGeometry>
        </mxCell>
        <mxCell id="CA8DIJyEQ-BG8HpjzGWb-83" style="edgeStyle=orthogonalEdgeStyle;rounded=0;orthogonalLoop=1;jettySize=auto;html=1;exitX=0.5;exitY=1;exitDx=0;exitDy=0;endArrow=none;endFill=0;" parent="1" source="CA8DIJyEQ-BG8HpjzGWb-78" target="CA8DIJyEQ-BG8HpjzGWb-84" edge="1">
          <mxGeometry relative="1" as="geometry">
            <mxPoint x="40" y="490" as="targetPoint" />
          </mxGeometry>
        </mxCell>
        <mxCell id="twbjdaluW3R16mWwh6AZ-29" style="edgeStyle=orthogonalEdgeStyle;rounded=0;orthogonalLoop=1;jettySize=auto;html=1;endArrow=oval;endFill=0;exitX=1.011;exitY=0.073;exitDx=0;exitDy=0;exitPerimeter=0;" edge="1" parent="1" source="CA8DIJyEQ-BG8HpjzGWb-78">
          <mxGeometry relative="1" as="geometry">
            <mxPoint x="1116" y="924" as="targetPoint" />
          </mxGeometry>
        </mxCell>
        <mxCell id="twbjdaluW3R16mWwh6AZ-31" style="edgeStyle=orthogonalEdgeStyle;rounded=0;orthogonalLoop=1;jettySize=auto;html=1;exitX=0.984;exitY=0.245;exitDx=0;exitDy=0;exitPerimeter=0;endArrow=oval;endFill=1;" edge="1" parent="1" source="CA8DIJyEQ-BG8HpjzGWb-78">
          <mxGeometry relative="1" as="geometry">
            <mxPoint x="1116" y="936" as="targetPoint" />
          </mxGeometry>
        </mxCell>
        <mxCell id="twbjdaluW3R16mWwh6AZ-34" style="edgeStyle=orthogonalEdgeStyle;rounded=0;orthogonalLoop=1;jettySize=auto;html=1;endArrow=oval;endFill=0;" edge="1" parent="1" source="CA8DIJyEQ-BG8HpjzGWb-78">
          <mxGeometry relative="1" as="geometry">
            <mxPoint x="1116" y="952" as="targetPoint" />
          </mxGeometry>
        </mxCell>
        <mxCell id="twbjdaluW3R16mWwh6AZ-46" style="edgeStyle=orthogonalEdgeStyle;rounded=0;orthogonalLoop=1;jettySize=auto;html=1;exitX=1.002;exitY=0.709;exitDx=0;exitDy=0;exitPerimeter=0;endArrow=oval;endFill=0;" edge="1" parent="1" source="CA8DIJyEQ-BG8HpjzGWb-78" target="twbjdaluW3R16mWwh6AZ-47">
          <mxGeometry relative="1" as="geometry">
            <mxPoint x="1116" y="972" as="targetPoint" />
            <Array as="points">
              <mxPoint x="1080" y="967" />
            </Array>
          </mxGeometry>
        </mxCell>
        <mxCell id="CA8DIJyEQ-BG8HpjzGWb-78" value="Server" style="rounded=0;whiteSpace=wrap;html=1;fillColor=#dae8fc;strokeColor=#6c8ebf;" parent="1" vertex="1">
          <mxGeometry x="957.5" y="920" width="122.5" height="64" as="geometry" />
        </mxCell>
        <mxCell id="CA8DIJyEQ-BG8HpjzGWb-81" style="edgeStyle=orthogonalEdgeStyle;rounded=0;orthogonalLoop=1;jettySize=auto;html=1;endArrow=none;endFill=0;" parent="1" source="CA8DIJyEQ-BG8HpjzGWb-80" target="CA8DIJyEQ-BG8HpjzGWb-82" edge="1">
          <mxGeometry relative="1" as="geometry">
            <mxPoint x="700" y="940" as="targetPoint" />
          </mxGeometry>
        </mxCell>
        <mxCell id="CA8DIJyEQ-BG8HpjzGWb-80" value="Possesso" style="rhombus;whiteSpace=wrap;html=1;fillColor=#dae8fc;strokeColor=#6c8ebf;" parent="1" vertex="1">
          <mxGeometry x="777" y="910" width="93" height="60" as="geometry" />
        </mxCell>
        <mxCell id="twbjdaluW3R16mWwh6AZ-42" style="edgeStyle=orthogonalEdgeStyle;rounded=0;orthogonalLoop=1;jettySize=auto;html=1;exitX=0;exitY=0.25;exitDx=0;exitDy=0;endArrow=oval;endFill=0;" edge="1" parent="1" source="CA8DIJyEQ-BG8HpjzGWb-82" target="twbjdaluW3R16mWwh6AZ-39">
          <mxGeometry relative="1" as="geometry" />
        </mxCell>
        <mxCell id="twbjdaluW3R16mWwh6AZ-44" style="edgeStyle=orthogonalEdgeStyle;rounded=0;orthogonalLoop=1;jettySize=auto;html=1;exitX=-0.021;exitY=0.922;exitDx=0;exitDy=0;exitPerimeter=0;endArrow=oval;endFill=0;" edge="1" parent="1" source="CA8DIJyEQ-BG8HpjzGWb-82">
          <mxGeometry relative="1" as="geometry">
            <mxPoint x="516" y="959" as="targetPoint" />
          </mxGeometry>
        </mxCell>
        <mxCell id="CA8DIJyEQ-BG8HpjzGWb-82" value="Stato Server" style="rounded=0;whiteSpace=wrap;html=1;fillColor=#dae8fc;strokeColor=#6c8ebf;" parent="1" vertex="1">
          <mxGeometry x="550" y="917.5" width="110" height="45" as="geometry" />
        </mxCell>
        <mxCell id="CA8DIJyEQ-BG8HpjzGWb-85" style="edgeStyle=orthogonalEdgeStyle;rounded=0;orthogonalLoop=1;jettySize=auto;html=1;endArrow=none;endFill=0;" parent="1" source="CA8DIJyEQ-BG8HpjzGWb-84" target="CA8DIJyEQ-BG8HpjzGWb-14" edge="1">
          <mxGeometry relative="1" as="geometry">
            <mxPoint x="240" y="200" as="targetPoint" />
            <Array as="points">
              <mxPoint x="40" y="340" />
              <mxPoint x="110" y="340" />
              <mxPoint x="110" y="200" />
              <mxPoint x="430" y="200" />
            </Array>
          </mxGeometry>
        </mxCell>
        <mxCell id="CA8DIJyEQ-BG8HpjzGWb-84" value="Cache" style="rhombus;whiteSpace=wrap;html=1;fillColor=#dae8fc;strokeColor=#6c8ebf;" parent="1" vertex="1">
          <mxGeometry y="460" width="80" height="50" as="geometry" />
        </mxCell>
        <mxCell id="X5VYXHr65bgpFRcitx1M-1" value="(1,n)" style="text;html=1;align=center;verticalAlign=middle;resizable=0;points=[];autosize=1;strokeColor=none;fillColor=none;" parent="1" vertex="1">
          <mxGeometry x="440" y="310" width="50" height="30" as="geometry" />
        </mxCell>
        <mxCell id="X5VYXHr65bgpFRcitx1M-2" value="(1,1)" style="text;html=1;align=center;verticalAlign=middle;resizable=0;points=[];autosize=1;strokeColor=none;fillColor=none;" parent="1" vertex="1">
          <mxGeometry x="481.25" y="150" width="50" height="30" as="geometry" />
        </mxCell>
        <mxCell id="X5VYXHr65bgpFRcitx1M-3" value="(0,n)" style="text;html=1;align=center;verticalAlign=middle;resizable=0;points=[];autosize=1;strokeColor=none;fillColor=none;" parent="1" vertex="1">
          <mxGeometry x="215" y="48" width="50" height="30" as="geometry" />
        </mxCell>
        <mxCell id="X5VYXHr65bgpFRcitx1M-4" value="(1,1)" style="text;html=1;align=center;verticalAlign=middle;resizable=0;points=[];autosize=1;strokeColor=none;fillColor=none;" parent="1" vertex="1">
          <mxGeometry x="435" y="88" width="50" height="30" as="geometry" />
        </mxCell>
        <mxCell id="X5VYXHr65bgpFRcitx1M-5" value="(1,1)" style="text;html=1;align=center;verticalAlign=middle;resizable=0;points=[];autosize=1;strokeColor=none;fillColor=none;" parent="1" vertex="1">
          <mxGeometry x="515" y="88" width="50" height="30" as="geometry" />
        </mxCell>
        <mxCell id="X5VYXHr65bgpFRcitx1M-6" value="(0,n)" style="text;html=1;align=center;verticalAlign=middle;resizable=0;points=[];autosize=1;strokeColor=none;fillColor=none;" parent="1" vertex="1">
          <mxGeometry x="822.5" y="55" width="50" height="30" as="geometry" />
        </mxCell>
        <mxCell id="X5VYXHr65bgpFRcitx1M-7" value="(0.n)" style="text;html=1;align=center;verticalAlign=middle;resizable=0;points=[];autosize=1;strokeColor=none;fillColor=none;" parent="1" vertex="1">
          <mxGeometry x="155" y="108" width="50" height="30" as="geometry" />
        </mxCell>
        <mxCell id="X5VYXHr65bgpFRcitx1M-8" value="(1,1)" style="text;html=1;align=center;verticalAlign=middle;resizable=0;points=[];autosize=1;strokeColor=none;fillColor=none;" parent="1" vertex="1">
          <mxGeometry x="375" y="108" width="50" height="30" as="geometry" />
        </mxCell>
        <mxCell id="X5VYXHr65bgpFRcitx1M-9" value="(1,n)" style="text;html=1;align=center;verticalAlign=middle;resizable=0;points=[];autosize=1;strokeColor=none;fillColor=none;" parent="1" vertex="1">
          <mxGeometry x="513.75" y="358" width="50" height="30" as="geometry" />
        </mxCell>
        <mxCell id="X5VYXHr65bgpFRcitx1M-10" value="(1,n)" style="text;html=1;align=center;verticalAlign=middle;resizable=0;points=[];autosize=1;strokeColor=none;fillColor=none;" parent="1" vertex="1">
          <mxGeometry x="720" y="368" width="50" height="30" as="geometry" />
        </mxCell>
        <mxCell id="X5VYXHr65bgpFRcitx1M-11" value="(0,n)" style="text;html=1;align=center;verticalAlign=middle;resizable=0;points=[];autosize=1;strokeColor=none;fillColor=none;" parent="1" vertex="1">
          <mxGeometry x="795" y="388" width="50" height="30" as="geometry" />
        </mxCell>
        <mxCell id="X5VYXHr65bgpFRcitx1M-12" value="(0,n)" style="text;html=1;align=center;verticalAlign=middle;resizable=0;points=[];autosize=1;strokeColor=none;fillColor=none;" parent="1" vertex="1">
          <mxGeometry x="505" y="588" width="50" height="30" as="geometry" />
        </mxCell>
        <mxCell id="X5VYXHr65bgpFRcitx1M-13" value="(0,n)" style="text;html=1;align=center;verticalAlign=middle;resizable=0;points=[];autosize=1;strokeColor=none;fillColor=none;" parent="1" vertex="1">
          <mxGeometry x="465" y="560" width="50" height="30" as="geometry" />
        </mxCell>
        <mxCell id="X5VYXHr65bgpFRcitx1M-14" value="(0,n)" style="text;html=1;align=center;verticalAlign=middle;resizable=0;points=[];autosize=1;strokeColor=none;fillColor=none;" parent="1" vertex="1">
          <mxGeometry x="385" y="578" width="50" height="30" as="geometry" />
        </mxCell>
        <mxCell id="X5VYXHr65bgpFRcitx1M-15" value="(0,n)" style="text;html=1;align=center;verticalAlign=middle;resizable=0;points=[];autosize=1;strokeColor=none;fillColor=none;" parent="1" vertex="1">
          <mxGeometry x="440" y="390" width="50" height="30" as="geometry" />
        </mxCell>
        <mxCell id="X5VYXHr65bgpFRcitx1M-16" value="(1,1)" style="text;html=1;align=center;verticalAlign=middle;resizable=0;points=[];autosize=1;strokeColor=none;fillColor=none;" parent="1" vertex="1">
          <mxGeometry x="410" y="398" width="50" height="30" as="geometry" />
        </mxCell>
        <mxCell id="X5VYXHr65bgpFRcitx1M-17" value="(1,n)" style="text;html=1;align=center;verticalAlign=middle;resizable=0;points=[];autosize=1;strokeColor=none;fillColor=none;" parent="1" vertex="1">
          <mxGeometry x="235" y="568" width="50" height="30" as="geometry" />
        </mxCell>
        <mxCell id="X5VYXHr65bgpFRcitx1M-18" value="(0,n)" style="text;html=1;align=center;verticalAlign=middle;resizable=0;points=[];autosize=1;strokeColor=none;fillColor=none;" parent="1" vertex="1">
          <mxGeometry x="481.25" y="310" width="50" height="30" as="geometry" />
        </mxCell>
        <mxCell id="X5VYXHr65bgpFRcitx1M-19" value="(1,n)" style="text;html=1;align=center;verticalAlign=middle;resizable=0;points=[];autosize=1;strokeColor=none;fillColor=none;" parent="1" vertex="1">
          <mxGeometry x="520" y="330" width="50" height="30" as="geometry" />
        </mxCell>
        <mxCell id="X5VYXHr65bgpFRcitx1M-22" value="(0,n)" style="text;html=1;align=center;verticalAlign=middle;resizable=0;points=[];autosize=1;strokeColor=none;fillColor=none;" parent="1" vertex="1">
          <mxGeometry x="917.5" y="200" width="50" height="30" as="geometry" />
        </mxCell>
        <mxCell id="X5VYXHr65bgpFRcitx1M-23" value="(1,n)" style="text;html=1;align=center;verticalAlign=middle;resizable=0;points=[];autosize=1;strokeColor=none;fillColor=none;" parent="1" vertex="1">
          <mxGeometry x="917.5" y="243.13" width="50" height="30" as="geometry" />
        </mxCell>
        <mxCell id="X5VYXHr65bgpFRcitx1M-24" value="(0,n)" style="text;html=1;align=center;verticalAlign=middle;resizable=0;points=[];autosize=1;strokeColor=none;fillColor=none;" parent="1" vertex="1">
          <mxGeometry x="1057.5" y="180" width="50" height="30" as="geometry" />
        </mxCell>
        <mxCell id="X5VYXHr65bgpFRcitx1M-25" value="(0,n)" style="text;html=1;align=center;verticalAlign=middle;resizable=0;points=[];autosize=1;strokeColor=none;fillColor=none;" parent="1" vertex="1">
          <mxGeometry x="1284" y="99.75" width="50" height="30" as="geometry" />
        </mxCell>
        <mxCell id="X5VYXHr65bgpFRcitx1M-26" value="(1,n)" style="text;html=1;align=center;verticalAlign=middle;resizable=0;points=[];autosize=1;strokeColor=none;fillColor=none;" parent="1" vertex="1">
          <mxGeometry x="1475" y="213.13" width="50" height="30" as="geometry" />
        </mxCell>
        <mxCell id="X5VYXHr65bgpFRcitx1M-27" value="(1,1)" style="text;html=1;align=center;verticalAlign=middle;resizable=0;points=[];autosize=1;strokeColor=none;fillColor=none;" parent="1" vertex="1">
          <mxGeometry x="1480" y="340" width="50" height="30" as="geometry" />
        </mxCell>
        <mxCell id="X5VYXHr65bgpFRcitx1M-28" value="(1,1)" style="text;html=1;align=center;verticalAlign=middle;resizable=0;points=[];autosize=1;strokeColor=none;fillColor=none;" parent="1" vertex="1">
          <mxGeometry x="1380" y="375" width="50" height="30" as="geometry" />
        </mxCell>
        <mxCell id="X5VYXHr65bgpFRcitx1M-29" value="(0,n)" style="text;html=1;align=center;verticalAlign=middle;resizable=0;points=[];autosize=1;strokeColor=none;fillColor=none;" parent="1" vertex="1">
          <mxGeometry x="1310" y="268" width="50" height="30" as="geometry" />
        </mxCell>
        <mxCell id="X5VYXHr65bgpFRcitx1M-30" value="(0,n)" style="text;html=1;align=center;verticalAlign=middle;resizable=0;points=[];autosize=1;strokeColor=none;fillColor=none;" parent="1" vertex="1">
          <mxGeometry x="1100" y="228" width="50" height="30" as="geometry" />
        </mxCell>
        <mxCell id="X5VYXHr65bgpFRcitx1M-31" value="(1,1)" style="text;html=1;align=center;verticalAlign=middle;resizable=0;points=[];autosize=1;strokeColor=none;fillColor=none;" parent="1" vertex="1">
          <mxGeometry x="1225" y="230" width="50" height="30" as="geometry" />
        </mxCell>
        <mxCell id="X5VYXHr65bgpFRcitx1M-32" value="(0,n)" style="text;html=1;align=center;verticalAlign=middle;resizable=0;points=[];autosize=1;strokeColor=none;fillColor=none;" parent="1" vertex="1">
          <mxGeometry x="1022.5" y="285" width="50" height="30" as="geometry" />
        </mxCell>
        <mxCell id="X5VYXHr65bgpFRcitx1M-33" value="(1,1)" style="text;html=1;align=center;verticalAlign=middle;resizable=0;points=[];autosize=1;strokeColor=none;fillColor=none;" parent="1" vertex="1">
          <mxGeometry x="1005" y="465" width="50" height="30" as="geometry" />
        </mxCell>
        <mxCell id="X5VYXHr65bgpFRcitx1M-34" value="(1,1)" style="text;html=1;align=center;verticalAlign=middle;resizable=0;points=[];autosize=1;strokeColor=none;fillColor=none;" parent="1" vertex="1">
          <mxGeometry x="1057.5" y="500" width="50" height="30" as="geometry" />
        </mxCell>
        <mxCell id="X5VYXHr65bgpFRcitx1M-35" value="(0,n)" style="text;html=1;align=center;verticalAlign=middle;resizable=0;points=[];autosize=1;strokeColor=none;fillColor=none;" parent="1" vertex="1">
          <mxGeometry x="1305" y="500" width="50" height="30" as="geometry" />
        </mxCell>
        <mxCell id="X5VYXHr65bgpFRcitx1M-36" value="(0,n)" style="text;html=1;align=center;verticalAlign=middle;resizable=0;points=[];autosize=1;strokeColor=none;fillColor=none;" parent="1" vertex="1">
          <mxGeometry x="1007.5" y="540" width="50" height="30" as="geometry" />
        </mxCell>
        <mxCell id="X5VYXHr65bgpFRcitx1M-37" value="(1,1)" style="text;html=1;align=center;verticalAlign=middle;resizable=0;points=[];autosize=1;strokeColor=none;fillColor=none;" parent="1" vertex="1">
          <mxGeometry x="1002.5" y="688" width="50" height="30" as="geometry" />
        </mxCell>
        <mxCell id="X5VYXHr65bgpFRcitx1M-38" value="(1,1)" style="text;html=1;align=center;verticalAlign=middle;resizable=0;points=[];autosize=1;strokeColor=none;fillColor=none;" parent="1" vertex="1">
          <mxGeometry x="915" y="698" width="50" height="30" as="geometry" />
        </mxCell>
        <mxCell id="X5VYXHr65bgpFRcitx1M-39" value="(1,n) (da capire)" style="text;html=1;align=center;verticalAlign=middle;resizable=0;points=[];autosize=1;strokeColor=none;fillColor=none;" parent="1" vertex="1">
          <mxGeometry x="975" y="748" width="110" height="30" as="geometry" />
        </mxCell>
        <mxCell id="X5VYXHr65bgpFRcitx1M-40" value="(0,n)" style="text;html=1;align=center;verticalAlign=middle;resizable=0;points=[];autosize=1;strokeColor=none;fillColor=none;" parent="1" vertex="1">
          <mxGeometry x="1007.5" y="887.5" width="50" height="30" as="geometry" />
        </mxCell>
        <mxCell id="X5VYXHr65bgpFRcitx1M-41" value="(1,1)" style="text;html=1;align=center;verticalAlign=middle;resizable=0;points=[];autosize=1;strokeColor=none;fillColor=none;" parent="1" vertex="1">
          <mxGeometry x="917.5" y="925" width="50" height="30" as="geometry" />
        </mxCell>
        <mxCell id="X5VYXHr65bgpFRcitx1M-42" value="(1,1)" style="text;html=1;align=center;verticalAlign=middle;resizable=0;points=[];autosize=1;strokeColor=none;fillColor=none;" parent="1" vertex="1">
          <mxGeometry x="660" y="917.5" width="50" height="30" as="geometry" />
        </mxCell>
        <mxCell id="X5VYXHr65bgpFRcitx1M-43" value="(0,n)" style="text;html=1;align=center;verticalAlign=middle;resizable=0;points=[];autosize=1;strokeColor=none;fillColor=none;" parent="1" vertex="1">
          <mxGeometry x="1007.5" y="984" width="50" height="30" as="geometry" />
        </mxCell>
        <mxCell id="X5VYXHr65bgpFRcitx1M-44" value="(0,n)" style="text;html=1;align=center;verticalAlign=middle;resizable=0;points=[];autosize=1;strokeColor=none;fillColor=none;" parent="1" vertex="1">
          <mxGeometry x="435" y="160" width="50" height="30" as="geometry" />
        </mxCell>
        <mxCell id="X5VYXHr65bgpFRcitx1M-45" value="(0,n)" style="text;html=1;align=center;verticalAlign=middle;resizable=0;points=[];autosize=1;strokeColor=none;fillColor=none;" parent="1" vertex="1">
          <mxGeometry x="385" y="158" width="50" height="30" as="geometry" />
        </mxCell>
        <mxCell id="X5VYXHr65bgpFRcitx1M-49" value="Titolo" style="text;html=1;align=center;verticalAlign=middle;resizable=0;points=[];autosize=1;strokeColor=none;fillColor=none;" parent="1" vertex="1">
          <mxGeometry x="330" y="340" width="50" height="30" as="geometry" />
        </mxCell>
        <mxCell id="X5VYXHr65bgpFRcitx1M-51" value="Descrizione" style="text;html=1;align=center;verticalAlign=middle;resizable=0;points=[];autosize=1;strokeColor=none;fillColor=none;" parent="1" vertex="1">
          <mxGeometry x="290" y="358" width="90" height="30" as="geometry" />
        </mxCell>
        <mxCell id="X5VYXHr65bgpFRcitx1M-54" value="Durata" style="text;html=1;align=center;verticalAlign=middle;resizable=0;points=[];autosize=1;strokeColor=none;fillColor=none;" parent="1" vertex="1">
          <mxGeometry x="365" y="405" width="60" height="30" as="geometry" />
        </mxCell>
        <mxCell id="X5VYXHr65bgpFRcitx1M-58" value="Codice" style="text;html=1;align=center;verticalAlign=middle;resizable=0;points=[];autosize=1;strokeColor=none;fillColor=none;" parent="1" vertex="1">
          <mxGeometry x="320" y="328" width="60" height="30" as="geometry" />
        </mxCell>
        <mxCell id="X5VYXHr65bgpFRcitx1M-62" value="Paese di Produzione" style="text;html=1;align=center;verticalAlign=middle;resizable=0;points=[];autosize=1;strokeColor=none;fillColor=none;" parent="1" vertex="1">
          <mxGeometry x="250" y="377.5" width="130" height="30" as="geometry" />
        </mxCell>
        <mxCell id="X5VYXHr65bgpFRcitx1M-64" value="Rating" style="text;html=1;align=center;verticalAlign=middle;resizable=0;points=[];autosize=1;strokeColor=none;fillColor=none;" parent="1" vertex="1">
          <mxGeometry x="395" y="280" width="60" height="30" as="geometry" />
        </mxCell>
        <mxCell id="X5VYXHr65bgpFRcitx1M-71" value="(1,n)" style="text;html=1;align=center;verticalAlign=middle;resizable=0;points=[];autosize=1;strokeColor=none;fillColor=none;" parent="1" vertex="1">
          <mxGeometry x="485" y="398" width="50" height="30" as="geometry" />
        </mxCell>
        <mxCell id="X5VYXHr65bgpFRcitx1M-72" value="Lingue" style="text;html=1;align=center;verticalAlign=middle;resizable=0;points=[];autosize=1;strokeColor=none;fillColor=none;" parent="1" vertex="1">
          <mxGeometry x="466.25" y="435" width="60" height="30" as="geometry" />
        </mxCell>
        <mxCell id="X5VYXHr65bgpFRcitx1M-74" value="(1,n)" style="text;html=1;align=center;verticalAlign=middle;resizable=0;points=[];autosize=1;strokeColor=none;fillColor=none;" parent="1" vertex="1">
          <mxGeometry x="513.75" y="385" width="50" height="30" as="geometry" />
        </mxCell>
        <mxCell id="X5VYXHr65bgpFRcitx1M-75" value="Sottotitoli" style="text;html=1;align=center;verticalAlign=middle;resizable=0;points=[];autosize=1;strokeColor=none;fillColor=none;" parent="1" vertex="1">
          <mxGeometry x="517.5" y="435" width="70" height="30" as="geometry" />
        </mxCell>
        <mxCell id="X5VYXHr65bgpFRcitx1M-79" value="Tipo" style="text;html=1;align=center;verticalAlign=middle;resizable=0;points=[];autosize=1;strokeColor=none;fillColor=none;" parent="1" vertex="1">
          <mxGeometry x="415" y="658" width="50" height="30" as="geometry" />
        </mxCell>
        <mxCell id="X5VYXHr65bgpFRcitx1M-81" value="Valore" style="text;html=1;align=center;verticalAlign=middle;resizable=0;points=[];autosize=1;strokeColor=none;fillColor=none;" parent="1" vertex="1">
          <mxGeometry x="470" y="658" width="60" height="30" as="geometry" />
        </mxCell>
        <mxCell id="X5VYXHr65bgpFRcitx1M-83" value="Codice" style="text;html=1;align=center;verticalAlign=middle;resizable=0;points=[];autosize=1;strokeColor=none;fillColor=none;" parent="1" vertex="1">
          <mxGeometry x="215" y="650" width="60" height="30" as="geometry" />
        </mxCell>
        <mxCell id="X5VYXHr65bgpFRcitx1M-85" value="Codice" style="text;html=1;align=center;verticalAlign=middle;resizable=0;points=[];autosize=1;strokeColor=none;fillColor=none;" parent="1" vertex="1">
          <mxGeometry x="780" y="298" width="60" height="30" as="geometry" />
        </mxCell>
        <mxCell id="X5VYXHr65bgpFRcitx1M-87" value="Nome" style="text;html=1;align=center;verticalAlign=middle;resizable=0;points=[];autosize=1;strokeColor=none;fillColor=none;" parent="1" vertex="1">
          <mxGeometry x="870" y="340" width="60" height="30" as="geometry" />
        </mxCell>
        <mxCell id="X5VYXHr65bgpFRcitx1M-89" value="Cognome" style="text;html=1;align=center;verticalAlign=middle;resizable=0;points=[];autosize=1;strokeColor=none;fillColor=none;" parent="1" vertex="1">
          <mxGeometry x="870" y="365" width="80" height="30" as="geometry" />
        </mxCell>
        <mxCell id="X5VYXHr65bgpFRcitx1M-93" value="Nome" style="text;html=1;align=center;verticalAlign=middle;resizable=0;points=[];autosize=1;strokeColor=none;fillColor=none;" parent="1" vertex="1">
          <mxGeometry x="128.12" y="585" width="60" height="30" as="geometry" />
        </mxCell>
        <mxCell id="X5VYXHr65bgpFRcitx1M-94" value="Cognome" style="text;html=1;align=center;verticalAlign=middle;resizable=0;points=[];autosize=1;strokeColor=none;fillColor=none;" parent="1" vertex="1">
          <mxGeometry x="108.12" y="608" width="80" height="30" as="geometry" />
        </mxCell>
        <mxCell id="X5VYXHr65bgpFRcitx1M-96" value="Valore" style="text;html=1;align=center;verticalAlign=middle;resizable=0;points=[];autosize=1;strokeColor=none;fillColor=none;" parent="1" vertex="1">
          <mxGeometry x="780" y="215" width="60" height="30" as="geometry" />
        </mxCell>
        <mxCell id="X5VYXHr65bgpFRcitx1M-99" value="Codice" style="text;html=1;align=center;verticalAlign=middle;resizable=0;points=[];autosize=1;strokeColor=none;fillColor=none;" parent="1" vertex="1">
          <mxGeometry x="1012.5" y="163.75" width="60" height="30" as="geometry" />
        </mxCell>
        <mxCell id="X5VYXHr65bgpFRcitx1M-104" style="edgeStyle=orthogonalEdgeStyle;rounded=0;orthogonalLoop=1;jettySize=auto;html=1;endArrow=oval;endFill=0;" parent="1" source="X5VYXHr65bgpFRcitx1M-103" edge="1">
          <mxGeometry relative="1" as="geometry">
            <mxPoint x="991" y="110" as="targetPoint" />
          </mxGeometry>
        </mxCell>
        <mxCell id="X5VYXHr65bgpFRcitx1M-106" style="edgeStyle=orthogonalEdgeStyle;rounded=0;orthogonalLoop=1;jettySize=auto;html=1;exitX=0.798;exitY=0.091;exitDx=0;exitDy=0;exitPerimeter=0;endArrow=oval;endFill=0;entryX=0.396;entryY=0.953;entryDx=0;entryDy=0;entryPerimeter=0;" parent="1" source="X5VYXHr65bgpFRcitx1M-103" target="X5VYXHr65bgpFRcitx1M-107" edge="1">
          <mxGeometry relative="1" as="geometry">
            <mxPoint x="1030" y="130" as="targetPoint" />
          </mxGeometry>
        </mxCell>
        <mxCell id="X5VYXHr65bgpFRcitx1M-108" style="edgeStyle=orthogonalEdgeStyle;rounded=0;orthogonalLoop=1;jettySize=auto;html=1;endArrow=oval;endFill=0;" parent="1" source="X5VYXHr65bgpFRcitx1M-103" edge="1">
          <mxGeometry relative="1" as="geometry">
            <mxPoint x="920" y="150.875" as="targetPoint" />
          </mxGeometry>
        </mxCell>
        <mxCell id="X5VYXHr65bgpFRcitx1M-110" style="edgeStyle=orthogonalEdgeStyle;rounded=0;orthogonalLoop=1;jettySize=auto;html=1;exitX=0.158;exitY=0.081;exitDx=0;exitDy=0;exitPerimeter=0;endArrow=oval;endFill=0;" parent="1" source="X5VYXHr65bgpFRcitx1M-103" edge="1">
          <mxGeometry relative="1" as="geometry">
            <mxPoint x="940" y="120" as="targetPoint" />
          </mxGeometry>
        </mxCell>
        <mxCell id="X5VYXHr65bgpFRcitx1M-103" value="Informazioni Personali" style="ellipse;whiteSpace=wrap;html=1;" parent="1" vertex="1">
          <mxGeometry x="950" y="130" width="82.5" height="41.75" as="geometry" />
        </mxCell>
        <mxCell id="X5VYXHr65bgpFRcitx1M-105" value="Nome" style="text;html=1;align=center;verticalAlign=middle;resizable=0;points=[];autosize=1;strokeColor=none;fillColor=none;" parent="1" vertex="1">
          <mxGeometry x="961.25" y="85" width="60" height="30" as="geometry" />
        </mxCell>
        <mxCell id="X5VYXHr65bgpFRcitx1M-107" value="Cognome" style="text;html=1;align=center;verticalAlign=middle;resizable=0;points=[];autosize=1;strokeColor=none;fillColor=none;" parent="1" vertex="1">
          <mxGeometry x="1002.5" y="88" width="80" height="30" as="geometry" />
        </mxCell>
        <mxCell id="X5VYXHr65bgpFRcitx1M-109" value="Email" style="text;html=1;align=center;verticalAlign=middle;resizable=0;points=[];autosize=1;strokeColor=none;fillColor=none;" parent="1" vertex="1">
          <mxGeometry x="872.5" y="133.75" width="50" height="30" as="geometry" />
        </mxCell>
        <mxCell id="X5VYXHr65bgpFRcitx1M-111" value="Password" style="text;html=1;align=center;verticalAlign=middle;resizable=0;points=[];autosize=1;strokeColor=none;fillColor=none;" parent="1" vertex="1">
          <mxGeometry x="892.5" y="96.25" width="80" height="30" as="geometry" />
        </mxCell>
        <mxCell id="TzTqIZtNaXJvueZtooWY-2" value="Inizio" style="text;html=1;align=center;verticalAlign=middle;resizable=0;points=[];autosize=1;strokeColor=none;fillColor=none;" parent="1" vertex="1">
          <mxGeometry x="880" y="490" width="50" height="30" as="geometry" />
        </mxCell>
        <mxCell id="TzTqIZtNaXJvueZtooWY-4" value="Fine" style="text;html=1;align=center;verticalAlign=middle;resizable=0;points=[];autosize=1;strokeColor=none;fillColor=none;" parent="1" vertex="1">
          <mxGeometry x="880" y="510" width="50" height="30" as="geometry" />
        </mxCell>
        <mxCell id="TzTqIZtNaXJvueZtooWY-5" value="" style="edgeStyle=none;orthogonalLoop=1;jettySize=auto;html=1;rounded=0;endArrow=none;endFill=0;" parent="1" edge="1">
          <mxGeometry width="100" relative="1" as="geometry">
            <mxPoint x="950" y="540" as="sourcePoint" />
            <mxPoint x="1040" y="490" as="targetPoint" />
            <Array as="points">
              <mxPoint x="950" y="490" />
              <mxPoint x="990" y="490" />
            </Array>
          </mxGeometry>
        </mxCell>
        <mxCell id="TzTqIZtNaXJvueZtooWY-8" value="IP" style="text;html=1;align=center;verticalAlign=middle;resizable=0;points=[];autosize=1;strokeColor=none;fillColor=none;" parent="1" vertex="1">
          <mxGeometry x="1042.5" y="450" width="30" height="30" as="geometry" />
        </mxCell>
        <mxCell id="TzTqIZtNaXJvueZtooWY-9" value="Tipo" style="text;html=1;align=center;verticalAlign=middle;resizable=0;points=[];autosize=1;strokeColor=none;fillColor=none;" parent="1" vertex="1">
          <mxGeometry x="1350" y="568" width="50" height="30" as="geometry" />
        </mxCell>
        <mxCell id="TzTqIZtNaXJvueZtooWY-12" value="Varie metriche che decideremo" style="text;html=1;align=center;verticalAlign=middle;resizable=0;points=[];autosize=1;strokeColor=none;fillColor=none;" parent="1" vertex="1">
          <mxGeometry x="1390" y="568" width="190" height="30" as="geometry" />
        </mxCell>
        <mxCell id="TzTqIZtNaXJvueZtooWY-14" value="Tipo" style="text;html=1;align=center;verticalAlign=middle;resizable=0;points=[];autosize=1;strokeColor=none;fillColor=none;" parent="1" vertex="1">
          <mxGeometry x="1314" y="23.5" width="50" height="30" as="geometry" />
        </mxCell>
        <mxCell id="TzTqIZtNaXJvueZtooWY-16" value="(0,n)" style="text;html=1;align=center;verticalAlign=middle;resizable=0;points=[];autosize=1;strokeColor=none;fillColor=none;" parent="1" vertex="1">
          <mxGeometry x="1364" y="69.75" width="50" height="30" as="geometry" />
        </mxCell>
        <mxCell id="TzTqIZtNaXJvueZtooWY-17" value="Contenuti" style="text;html=1;align=center;verticalAlign=middle;resizable=0;points=[];autosize=1;strokeColor=none;fillColor=none;" parent="1" vertex="1">
          <mxGeometry x="1344" y="21.5" width="70" height="30" as="geometry" />
        </mxCell>
        <mxCell id="TzTqIZtNaXJvueZtooWY-19" value="Download" style="text;html=1;align=center;verticalAlign=middle;resizable=0;points=[];autosize=1;strokeColor=none;fillColor=none;" parent="1" vertex="1">
          <mxGeometry x="1504" y="83.5" width="80" height="30" as="geometry" />
        </mxCell>
        <mxCell id="TzTqIZtNaXJvueZtooWY-22" value="Massime Connessioni" style="text;html=1;align=center;verticalAlign=middle;resizable=0;points=[];autosize=1;strokeColor=none;fillColor=none;" parent="1" vertex="1">
          <mxGeometry x="1504" y="101.5" width="140" height="30" as="geometry" />
        </mxCell>
        <mxCell id="TzTqIZtNaXJvueZtooWY-27" value="Gb Massimi" style="text;html=1;align=center;verticalAlign=middle;resizable=0;points=[];autosize=1;strokeColor=none;fillColor=none;" parent="1" vertex="1">
          <mxGeometry x="1440" y="23.5" width="90" height="30" as="geometry" />
        </mxCell>
        <mxCell id="TzTqIZtNaXJvueZtooWY-30" value="(0,n)" style="text;html=1;align=center;verticalAlign=middle;resizable=0;points=[];autosize=1;strokeColor=none;fillColor=none;" parent="1" vertex="1">
          <mxGeometry x="1390" y="150" width="50" height="30" as="geometry" />
        </mxCell>
        <mxCell id="TzTqIZtNaXJvueZtooWY-31" value="Restrizioni Geografiche" style="text;html=1;align=center;verticalAlign=middle;resizable=0;points=[];autosize=1;strokeColor=none;fillColor=none;" parent="1" vertex="1">
          <mxGeometry x="1504" y="137.25" width="150" height="30" as="geometry" />
        </mxCell>
        <mxCell id="TzTqIZtNaXJvueZtooWY-39" value="(0,1)" style="text;html=1;align=center;verticalAlign=middle;resizable=0;points=[];autosize=1;strokeColor=none;fillColor=none;" parent="1" vertex="1">
          <mxGeometry x="1449" y="63.5" width="50" height="30" as="geometry" />
        </mxCell>
        <mxCell id="TzTqIZtNaXJvueZtooWY-41" value="Durata" style="text;html=1;align=center;verticalAlign=middle;resizable=0;points=[];autosize=1;strokeColor=none;fillColor=none;" parent="1" vertex="1">
          <mxGeometry x="1400" y="20" width="60" height="30" as="geometry" />
        </mxCell>
        <mxCell id="TzTqIZtNaXJvueZtooWY-47" value="Tariffa Mensile" style="text;html=1;align=center;verticalAlign=middle;resizable=0;points=[];autosize=1;strokeColor=none;fillColor=none;" parent="1" vertex="1">
          <mxGeometry x="1504" y="118.5" width="100" height="30" as="geometry" />
        </mxCell>
        <mxCell id="TzTqIZtNaXJvueZtooWY-54" value="Data Emissione" style="text;html=1;align=center;verticalAlign=middle;resizable=0;points=[];autosize=1;strokeColor=none;fillColor=none;" parent="1" vertex="1">
          <mxGeometry x="1548" y="375" width="110" height="30" as="geometry" />
        </mxCell>
        <mxCell id="TzTqIZtNaXJvueZtooWY-56" value="Tariffa" style="text;html=1;align=center;verticalAlign=middle;resizable=0;points=[];autosize=1;strokeColor=none;fillColor=none;" parent="1" vertex="1">
          <mxGeometry x="1560" y="398" width="60" height="30" as="geometry" />
        </mxCell>
        <mxCell id="TzTqIZtNaXJvueZtooWY-60" value="Data" style="text;html=1;align=center;verticalAlign=middle;resizable=0;points=[];autosize=1;strokeColor=none;fillColor=none;rotation=0;" parent="1" vertex="1">
          <mxGeometry x="1310" y="360" width="50" height="30" as="geometry" />
        </mxCell>
        <mxCell id="TzTqIZtNaXJvueZtooWY-62" value="Inizio Abbonamento" style="text;html=1;align=center;verticalAlign=middle;resizable=0;points=[];autosize=1;strokeColor=none;fillColor=none;" parent="1" vertex="1">
          <mxGeometry x="1125" y="25" width="130" height="30" as="geometry" />
        </mxCell>
        <mxCell id="TzTqIZtNaXJvueZtooWY-67" value="Scadenza" style="text;html=1;align=center;verticalAlign=middle;resizable=0;points=[];autosize=1;strokeColor=none;fillColor=none;" parent="1" vertex="1">
          <mxGeometry x="1420" y="450" width="80" height="30" as="geometry" />
        </mxCell>
        <mxCell id="TzTqIZtNaXJvueZtooWY-68" value="Qui la chiave è da capire" style="text;html=1;align=center;verticalAlign=middle;resizable=0;points=[];autosize=1;strokeColor=none;fillColor=none;" parent="1" vertex="1">
          <mxGeometry x="1485" y="315" width="160" height="30" as="geometry" />
        </mxCell>
        <mxCell id="TzTqIZtNaXJvueZtooWY-70" value="" style="edgeStyle=none;orthogonalLoop=1;jettySize=auto;html=1;rounded=0;endArrow=none;endFill=0;" parent="1" edge="1">
          <mxGeometry width="100" relative="1" as="geometry">
            <mxPoint x="1470" y="430" as="sourcePoint" />
            <mxPoint x="1510" y="370" as="targetPoint" />
            <Array as="points">
              <mxPoint x="1420" y="430" />
              <mxPoint x="1420" y="370" />
              <mxPoint x="1440" y="370" />
              <mxPoint x="1460" y="370" />
              <mxPoint x="1480" y="370" />
            </Array>
          </mxGeometry>
        </mxCell>
        <mxCell id="twbjdaluW3R16mWwh6AZ-3" style="edgeStyle=orthogonalEdgeStyle;rounded=0;orthogonalLoop=1;jettySize=auto;html=1;entryX=0.881;entryY=0.987;entryDx=0;entryDy=0;entryPerimeter=0;endArrow=none;endFill=0;" edge="1" parent="1" source="twbjdaluW3R16mWwh6AZ-2" target="CA8DIJyEQ-BG8HpjzGWb-37">
          <mxGeometry relative="1" as="geometry" />
        </mxCell>
        <mxCell id="twbjdaluW3R16mWwh6AZ-7" style="edgeStyle=orthogonalEdgeStyle;rounded=0;orthogonalLoop=1;jettySize=auto;html=1;endArrow=oval;endFill=0;" edge="1" parent="1" source="twbjdaluW3R16mWwh6AZ-2">
          <mxGeometry relative="1" as="geometry">
            <mxPoint x="1179" y="456" as="targetPoint" />
          </mxGeometry>
        </mxCell>
        <mxCell id="twbjdaluW3R16mWwh6AZ-2" value="UtenteFattura" style="rhombus;whiteSpace=wrap;html=1;fillColor=#f8cecc;strokeColor=#b85450;" vertex="1" parent="1">
          <mxGeometry x="1133" y="372" width="92" height="56" as="geometry" />
        </mxCell>
        <mxCell id="twbjdaluW3R16mWwh6AZ-4" value="(0,1)" style="text;html=1;align=center;verticalAlign=middle;resizable=0;points=[];autosize=1;strokeColor=none;fillColor=none;" vertex="1" parent="1">
          <mxGeometry x="1406" y="350" width="48" height="24" as="geometry" />
        </mxCell>
        <mxCell id="twbjdaluW3R16mWwh6AZ-5" value="( 0,n)" style="text;html=1;align=center;verticalAlign=middle;resizable=0;points=[];autosize=1;strokeColor=none;fillColor=none;" vertex="1" parent="1">
          <mxGeometry x="1065" y="286" width="60" height="24" as="geometry" />
        </mxCell>
        <mxCell id="twbjdaluW3R16mWwh6AZ-8" value="Pagata" style="text;html=1;align=center;verticalAlign=middle;resizable=0;points=[];autosize=1;fontStyle=1;horizontal=1;fontColor=#FF6666;" vertex="1" parent="1">
          <mxGeometry x="1142" y="457" width="60" height="24" as="geometry" />
        </mxCell>
        <mxCell id="twbjdaluW3R16mWwh6AZ-10" value="Numero Carta" style="text;html=1;align=center;verticalAlign=middle;resizable=0;points=[];autosize=1;strokeColor=none;fillColor=none;" vertex="1" parent="1">
          <mxGeometry x="1238" y="178" width="96" height="24" as="geometry" />
        </mxCell>
        <mxCell id="twbjdaluW3R16mWwh6AZ-14" value="Scadenza" style="text;html=1;align=center;verticalAlign=middle;resizable=0;points=[];autosize=1;strokeColor=none;fillColor=none;" vertex="1" parent="1">
          <mxGeometry x="1391" y="226" width="84" height="24" as="geometry" />
        </mxCell>
        <mxCell id="twbjdaluW3R16mWwh6AZ-19" value="Inizio" style="text;html=1;align=center;verticalAlign=middle;resizable=0;points=[];autosize=1;strokeColor=none;fillColor=none;" vertex="1" parent="1">
          <mxGeometry x="1082.5" y="704" width="60" height="24" as="geometry" />
        </mxCell>
        <mxCell id="twbjdaluW3R16mWwh6AZ-21" value="Fine" style="text;html=1;align=center;verticalAlign=middle;resizable=0;points=[];autosize=1;strokeColor=none;fillColor=none;" vertex="1" parent="1">
          <mxGeometry x="1088.5" y="728" width="48" height="24" as="geometry" />
        </mxCell>
        <mxCell id="twbjdaluW3R16mWwh6AZ-28" value="" style="edgeStyle=none;orthogonalLoop=1;jettySize=auto;html=1;rounded=0;endArrow=oval;endFill=1;" edge="1" parent="1">
          <mxGeometry width="100" relative="1" as="geometry">
            <mxPoint x="1080" y="732" as="sourcePoint" />
            <mxPoint x="984" y="696" as="targetPoint" />
            <Array as="points">
              <mxPoint x="1080" y="696" />
              <mxPoint x="1032" y="696" />
            </Array>
          </mxGeometry>
        </mxCell>
        <mxCell id="twbjdaluW3R16mWwh6AZ-30" value="Posizione" style="text;html=1;align=center;verticalAlign=middle;resizable=0;points=[];autosize=1;strokeColor=none;fillColor=none;" vertex="1" parent="1">
          <mxGeometry x="1107.5" y="908" width="84" height="24" as="geometry" />
        </mxCell>
        <mxCell id="twbjdaluW3R16mWwh6AZ-32" value="Identificatore" style="text;html=1;align=center;verticalAlign=middle;resizable=0;points=[];autosize=1;strokeColor=none;fillColor=none;" vertex="1" parent="1">
          <mxGeometry x="1106" y="925" width="96" height="24" as="geometry" />
        </mxCell>
        <mxCell id="twbjdaluW3R16mWwh6AZ-35" value="Larghezza di Banda" style="text;html=1;align=center;verticalAlign=middle;resizable=0;points=[];autosize=1;strokeColor=none;fillColor=none;" vertex="1" parent="1">
          <mxGeometry x="1109" y="940" width="132" height="24" as="geometry" />
        </mxCell>
        <mxCell id="twbjdaluW3R16mWwh6AZ-37" value="" style="edgeStyle=none;orthogonalLoop=1;jettySize=auto;html=1;rounded=0;endArrow=oval;endFill=1;" edge="1" parent="1">
          <mxGeometry width="100" relative="1" as="geometry">
            <mxPoint x="672" y="900" as="sourcePoint" />
            <mxPoint x="672" y="972" as="targetPoint" />
            <Array as="points" />
          </mxGeometry>
        </mxCell>
        <mxCell id="twbjdaluW3R16mWwh6AZ-39" value="Banda attuale" style="text;html=1;align=center;verticalAlign=middle;resizable=0;points=[];autosize=1;strokeColor=none;fillColor=none;" vertex="1" parent="1">
          <mxGeometry x="417.75" y="916" width="96" height="24" as="geometry" />
        </mxCell>
        <mxCell id="twbjdaluW3R16mWwh6AZ-45" value="Dati trasmessi" style="text;html=1;align=center;verticalAlign=middle;resizable=0;points=[];autosize=1;strokeColor=none;fillColor=none;" vertex="1" parent="1">
          <mxGeometry x="415" y="946" width="108" height="24" as="geometry" />
        </mxCell>
        <mxCell id="twbjdaluW3R16mWwh6AZ-47" value="Capacità Massima" style="text;html=1;align=center;verticalAlign=middle;resizable=0;points=[];autosize=1;strokeColor=none;fillColor=none;" vertex="1" parent="1">
          <mxGeometry x="1115" y="955" width="120" height="24" as="geometry" />
        </mxCell>
      </root>
    </mxGraphModel>
  </diagram>
</mxfile>
